<svg width="530" height="420" viewBox="0 0 530 420" fill="none" xmlns="http://www.w3.org/2000/svg">
<rect width="530" height="420" rx="32" fill="#181718"/>
<rect width="450" height="333.613" transform="translate(40 40)" fill="#181718"/>
<path d="M44.52 64H41.48V49.64H50.76V52.28H44.52V55.9H49.78V58.52H44.52V64ZM55.2309 58.82V64H52.4509V53.32H55.0109V55.38C55.7909 54.02 57.4509 53.2 59.1709 53.2V56.08C56.8109 55.9 55.2309 56.46 55.2309 58.82ZM66.975 64V62.68C66.275 63.68 65.215 64.2 63.755 64.2C61.535 64.2 60.055 62.9 60.055 60.9C60.055 58.82 61.735 57.7 64.855 57.7C65.455 57.7 65.975 57.74 66.635 57.82V57.18C66.635 55.98 65.955 55.28 64.795 55.28C63.595 55.28 62.875 55.98 62.775 57.18H60.275C60.435 54.72 62.215 53.12 64.795 53.12C67.595 53.12 69.235 54.66 69.235 57.28V64H66.975ZM62.675 60.82C62.675 61.72 63.315 62.28 64.355 62.28C65.775 62.28 66.635 61.5 66.635 60.26V59.5C65.975 59.4 65.515 59.36 65.035 59.36C63.455 59.36 62.675 59.86 62.675 60.82ZM76.1306 64.2C73.0506 64.2 70.9306 61.92 70.9306 58.66C70.9306 55.46 73.1306 53.12 76.1306 53.12C78.9106 53.12 80.9706 55 81.3106 57.88H78.3906C78.2506 56.46 77.3906 55.58 76.1306 55.58C74.6906 55.58 73.7706 56.76 73.7706 58.66C73.7706 60.58 74.6706 61.74 76.1306 61.74C77.4106 61.74 78.2306 60.9 78.3906 59.44H81.3106C80.9906 62.38 78.9906 64.2 76.1306 64.2ZM89.7355 61.3V63.72C89.0555 64.06 88.4155 64.2 87.5955 64.2C85.3955 64.2 84.0155 62.94 84.0155 60.54V55.7H81.8555V53.32H84.0155V50.16H86.7755V53.32H89.8355V55.7H86.7755V59.9C86.7755 61.14 87.3355 61.64 88.3355 61.64C88.8555 61.64 89.3355 61.52 89.7355 61.3ZM94.753 50.84C94.753 51.78 93.993 52.48 92.893 52.48C91.813 52.48 91.053 51.78 91.053 50.84C91.053 49.86 91.813 49.16 92.893 49.16C93.993 49.16 94.753 49.86 94.753 50.84ZM94.313 64H91.533V53.32H94.313V64ZM101.507 64.2C98.4069 64.2 96.0869 61.76 96.0869 58.66C96.0869 55.54 98.4069 53.12 101.507 53.12C104.607 53.12 106.927 55.54 106.927 58.66C106.927 61.76 104.607 64.2 101.507 64.2ZM101.507 61.74C102.887 61.74 104.067 60.64 104.067 58.66C104.067 56.68 102.887 55.6 101.507 55.6C100.127 55.6 98.9469 56.68 98.9469 58.66C98.9469 60.64 100.127 61.74 101.507 61.74ZM111.481 58.18V64H108.701V53.32H111.261V54.84C112.041 53.78 113.141 53.12 114.541 53.12C116.681 53.12 118.161 54.52 118.161 57.1V64H115.401V58.04C115.401 56.46 114.781 55.58 113.521 55.58C112.421 55.58 111.481 56.46 111.481 58.18ZM126.916 64V62.68C126.216 63.68 125.156 64.2 123.696 64.2C121.476 64.2 119.996 62.9 119.996 60.9C119.996 58.82 121.676 57.7 124.796 57.7C125.396 57.7 125.916 57.74 126.576 57.82V57.18C126.576 55.98 125.896 55.28 124.736 55.28C123.536 55.28 122.816 55.98 122.716 57.18H120.216C120.376 54.72 122.156 53.12 124.736 53.12C127.536 53.12 129.176 54.66 129.176 57.28V64H126.916ZM122.616 60.82C122.616 61.72 123.256 62.28 124.296 62.28C125.716 62.28 126.576 61.5 126.576 60.26V59.5C125.916 59.4 125.456 59.36 124.976 59.36C123.396 59.36 122.616 59.86 122.616 60.82ZM134.372 64H131.572V49.64H134.372V64ZM151.864 61.3V63.72C151.184 64.06 150.544 64.2 149.724 64.2C147.524 64.2 146.144 62.94 146.144 60.54V55.7H143.984V53.32H146.144V50.16H148.904V53.32H151.964V55.7H148.904V59.9C148.904 61.14 149.464 61.64 150.464 61.64C150.984 61.64 151.464 61.52 151.864 61.3ZM158.148 64.2C155.048 64.2 152.728 61.76 152.728 58.66C152.728 55.54 155.048 53.12 158.148 53.12C161.248 53.12 163.568 55.54 163.568 58.66C163.568 61.76 161.248 64.2 158.148 64.2ZM158.148 61.74C159.528 61.74 160.708 60.64 160.708 58.66C160.708 56.68 159.528 55.6 158.148 55.6C156.768 55.6 155.588 56.68 155.588 58.66C155.588 60.64 156.768 61.74 158.148 61.74ZM168.122 64H165.342V49.64H168.122V57.84L172.022 53.32H175.222L170.802 58.44L175.742 64H172.202L168.122 59.04V64ZM180.997 64.18C177.797 64.18 175.657 61.96 175.657 58.62C175.657 55.44 177.877 53.12 180.957 53.12C184.337 53.12 186.577 55.86 186.077 59.34H178.497C178.677 61.08 179.517 62.04 180.937 62.04C182.157 62.04 182.977 61.44 183.297 60.38H186.057C185.457 62.8 183.597 64.18 180.997 64.18ZM180.897 55.16C179.597 55.16 178.777 56 178.537 57.58H183.137C183.057 56.1 182.217 55.16 180.897 55.16ZM190.719 58.18V64H187.939V53.32H190.499V54.84C191.279 53.78 192.379 53.12 193.779 53.12C195.919 53.12 197.399 54.52 197.399 57.1V64H194.639V58.04C194.639 56.46 194.019 55.58 192.759 55.58C191.659 55.58 190.719 56.46 190.719 58.18ZM208.815 60.58C208.815 62.82 207.115 64.2 204.075 64.2C201.035 64.2 199.335 62.74 199.115 60.36H201.775C201.795 61.46 202.735 62.16 204.115 62.16C205.195 62.16 206.015 61.82 206.015 61.06C206.015 60.38 205.575 60.1 204.555 59.9L202.635 59.54C200.715 59.2 199.555 58.14 199.555 56.48C199.555 54.5 201.255 53.12 203.915 53.12C206.595 53.12 208.435 54.54 208.635 56.84H205.975C205.875 55.8 205.095 55.16 203.915 55.16C202.895 55.16 202.215 55.54 202.215 56.22C202.215 56.86 202.655 57.12 203.615 57.3L205.675 57.68C207.755 58.08 208.815 59.04 208.815 60.58ZM221.532 61.3V63.72C220.852 64.06 220.212 64.2 219.392 64.2C217.192 64.2 215.812 62.94 215.812 60.54V55.7H213.652V53.32H215.812V50.16H218.572V53.32H221.632V55.7H218.572V59.9C218.572 61.14 219.132 61.64 220.132 61.64C220.652 61.64 221.132 61.52 221.532 61.3ZM227.815 64.2C224.715 64.2 222.395 61.76 222.395 58.66C222.395 55.54 224.715 53.12 227.815 53.12C230.915 53.12 233.235 55.54 233.235 58.66C233.235 61.76 230.915 64.2 227.815 64.2ZM227.815 61.74C229.195 61.74 230.375 60.64 230.375 58.66C230.375 56.68 229.195 55.6 227.815 55.6C226.435 55.6 225.255 56.68 225.255 58.66C225.255 60.64 226.435 61.74 227.815 61.74ZM249.849 58.66C249.849 61.78 247.989 64.2 245.109 64.2C243.729 64.2 242.569 63.58 241.749 62.46V64H239.189V49.64H241.969V54.7C242.749 53.66 243.829 53.12 245.109 53.12C247.989 53.12 249.849 55.5 249.849 58.66ZM246.989 58.66C246.989 56.62 245.849 55.58 244.489 55.58C243.149 55.58 241.989 56.6 241.989 58.62C241.989 60.64 243.109 61.72 244.489 61.72C245.849 61.72 246.989 60.66 246.989 58.66ZM258.131 59.5V53.32H260.891V64H258.351V62.6C257.771 63.54 256.591 64.2 255.231 64.2C253.091 64.2 251.531 62.9 251.531 60.12V53.32H254.311V59.58C254.311 61.08 255.051 61.74 256.171 61.74C257.171 61.74 258.131 60.94 258.131 59.5ZM273.008 53.32L267.808 67.86H264.788L266.308 63.88L262.108 53.32H265.108L267.788 60.64L270.228 53.32H273.008Z" fill="white"/>
<rect x="40" y="100" width="314" height="56" rx="20" fill="#252425"/>
<rect x="64" y="118" width="112" height="20" rx="10" fill="#3D3D3D"/>
<rect x="362" y="100" width="128" height="56" rx="20" fill="#252425"/>
<circle cx="390" cy="128" r="20" fill="#3D3D3D"/>
<rect x="422" y="119" width="48" height="6" rx="3" fill="#3D3D3D"/>
<rect x="422" y="131" width="48" height="6" rx="3" fill="#3D3D3D"/>
<path d="M49.392 195L48.192 191.816H42.832L41.616 195H40.432L44.896 183.512H46.208L50.656 195H49.392ZM45.52 184.792L43.2 190.84H47.808L45.52 184.792ZM58.1651 186.568L54.9171 195H53.7491L50.5331 186.568H51.7331L54.3731 193.688L57.0131 186.568H58.1651ZM64.4781 195V193.464C63.9821 194.52 62.9581 195.16 61.6461 195.16C59.9021 195.16 58.7661 194.184 58.7661 192.664C58.7661 191.016 60.0781 190.152 62.6381 190.152C63.1501 190.152 63.5341 190.184 64.3661 190.248V189.544C64.3661 188.136 63.6141 187.304 62.3341 187.304C60.9581 187.304 60.0941 188.152 60.0781 189.528H59.0541C59.1021 187.656 60.3981 186.408 62.3181 186.408C64.2861 186.408 65.4381 187.56 65.4381 189.512V195H64.4781ZM59.8381 192.632C59.8381 193.656 60.6221 194.344 61.8061 194.344C63.3741 194.344 64.3661 193.32 64.3661 191.736V190.984C63.6461 190.92 63.1501 190.904 62.6861 190.904C60.7661 190.904 59.8381 191.464 59.8381 192.632ZM69.2501 184.616C69.2501 185.112 68.8821 185.464 68.3381 185.464C67.8101 185.464 67.4421 185.112 67.4421 184.616C67.4421 184.136 67.8101 183.784 68.3381 183.784C68.8821 183.784 69.2501 184.136 69.2501 184.616ZM68.9141 195H67.7941V186.568H68.9141V195ZM72.461 195H71.341V183.512H72.461V195ZM80.0719 195V193.464C79.5759 194.52 78.5519 195.16 77.2399 195.16C75.4959 195.16 74.3599 194.184 74.3599 192.664C74.3599 191.016 75.6719 190.152 78.2319 190.152C78.7439 190.152 79.1279 190.184 79.9599 190.248V189.544C79.9599 188.136 79.2079 187.304 77.9279 187.304C76.5519 187.304 75.6879 188.152 75.6719 189.528H74.6479C74.6959 187.656 75.9919 186.408 77.9119 186.408C79.8799 186.408 81.0319 187.56 81.0319 189.512V195H80.0719ZM75.4319 192.632C75.4319 193.656 76.2159 194.344 77.3999 194.344C78.9679 194.344 79.9599 193.32 79.9599 191.736V190.984C79.2399 190.92 78.7439 190.904 78.2799 190.904C76.3599 190.904 75.4319 191.464 75.4319 192.632ZM91.1159 190.776C91.1159 193.368 89.6599 195.16 87.4039 195.16C86.1079 195.16 85.0199 194.456 84.4279 193.224V195H83.3879V183.512H84.5079V188.344C85.0519 187.112 86.1239 186.408 87.4039 186.408C89.6599 186.408 91.1159 188.184 91.1159 190.776ZM89.9799 190.776C89.9799 188.632 88.8759 187.384 87.2279 187.384C85.6439 187.384 84.4919 188.616 84.4919 190.744C84.4919 192.856 85.6119 194.184 87.2279 194.184C88.8759 194.184 89.9799 192.92 89.9799 190.776ZM94.0391 195H92.9191V183.512H94.0391V195ZM99.778 195.16C97.41 195.16 95.842 193.384 95.842 190.712C95.842 188.248 97.474 186.408 99.714 186.408C102.114 186.408 103.682 188.344 103.49 191.048H96.962C97.058 193.048 98.114 194.28 99.762 194.28C101.17 194.28 102.146 193.496 102.418 192.152H103.522C103.138 194.024 101.714 195.16 99.778 195.16ZM99.698 187.272C98.178 187.272 97.106 188.44 96.962 190.28H102.322C102.226 188.392 101.25 187.272 99.698 187.272ZM107.197 187.56C107.197 188.152 106.781 188.568 106.189 188.568C105.613 188.568 105.181 188.152 105.181 187.56C105.181 186.968 105.613 186.536 106.189 186.536C106.781 186.536 107.197 186.968 107.197 187.56ZM107.197 194.072C107.197 194.648 106.781 195.08 106.189 195.08C105.613 195.08 105.181 194.648 105.181 194.072C105.181 193.464 105.613 193.048 106.189 193.048C106.781 193.048 107.197 193.464 107.197 194.072ZM112.41 189.608C112.41 186.024 113.786 184.024 116.25 184.024C118.698 184.024 120.09 186.024 120.09 189.608C120.09 193.192 118.73 195.16 116.25 195.16C113.754 195.16 112.41 193.192 112.41 189.608ZM113.562 189.608C113.562 192.584 114.474 194.168 116.25 194.168C117.994 194.168 118.938 192.6 118.938 189.608C118.938 186.6 117.994 185.016 116.25 185.016C114.506 185.016 113.562 186.584 113.562 189.608ZM123.666 194.072C123.666 194.648 123.25 195.08 122.658 195.08C122.082 195.08 121.65 194.648 121.65 194.072C121.65 193.464 122.082 193.048 122.658 193.048C123.25 193.048 123.666 193.464 123.666 194.072ZM125.222 189.608C125.222 186.024 126.598 184.024 129.062 184.024C131.51 184.024 132.902 186.024 132.902 189.608C132.902 193.192 131.542 195.16 129.062 195.16C126.566 195.16 125.222 193.192 125.222 189.608ZM126.374 189.608C126.374 192.584 127.286 194.168 129.062 194.168C130.806 194.168 131.75 192.6 131.75 189.608C131.75 186.6 130.806 185.016 129.062 185.016C127.318 185.016 126.374 186.584 126.374 189.608ZM134.535 189.608C134.535 186.024 135.911 184.024 138.375 184.024C140.823 184.024 142.215 186.024 142.215 189.608C142.215 193.192 140.855 195.16 138.375 195.16C135.879 195.16 134.535 193.192 134.535 189.608ZM135.687 189.608C135.687 192.584 136.599 194.168 138.375 194.168C140.119 194.168 141.063 192.6 141.063 189.608C141.063 186.6 140.119 185.016 138.375 185.016C136.631 185.016 135.687 186.584 135.687 189.608ZM143.847 189.608C143.847 186.024 145.223 184.024 147.687 184.024C150.135 184.024 151.527 186.024 151.527 189.608C151.527 193.192 150.167 195.16 147.687 195.16C145.191 195.16 143.847 193.192 143.847 189.608ZM144.999 189.608C144.999 192.584 145.911 194.168 147.687 194.168C149.431 194.168 150.375 192.6 150.375 189.608C150.375 186.6 149.431 185.016 147.687 185.016C145.943 185.016 144.999 186.584 144.999 189.608ZM155.817 195H154.713V185.144H152.585V184.184H155.817V195ZM161.556 184.04C163.716 184.04 165.316 185.592 165.316 187.576C165.316 188.904 164.788 189.736 163.876 190.888L160.628 195H159.348L162.596 190.872C162.164 191.048 161.716 191.112 161.316 191.112C159.299 191.112 157.78 189.72 157.78 187.608C157.78 185.592 159.38 184.04 161.556 184.04ZM161.54 184.968C160.02 184.968 158.932 186.072 158.932 187.576C158.932 189.192 160.02 190.264 161.54 190.264C163.028 190.264 164.164 189.336 164.164 187.608C164.164 186.072 163.028 184.968 161.54 184.968ZM173.392 194.008V195H166.864V194.36L170.32 190.456C171.632 188.968 172.112 188.168 172.112 187.128C172.112 185.912 171.216 185.016 169.952 185.016C168.64 185.016 167.712 185.928 167.712 187.272H166.624C166.624 185.384 168.016 184.024 170 184.024C171.888 184.024 173.28 185.288 173.28 187.032C173.28 188.2 172.816 189.08 171.152 190.936L168.512 194.008H173.392ZM178.591 195.144C176.447 195.144 174.975 193.88 174.927 192.008H176.015C176.079 193.368 177.087 194.232 178.591 194.232C180.143 194.232 181.087 193.384 181.087 192.024C181.087 190.728 180.031 189.896 178.367 189.896H177.295V188.968H178.335C179.663 188.968 180.591 188.12 180.591 186.904C180.591 185.736 179.727 184.936 178.495 184.936C177.215 184.936 176.367 185.736 176.303 186.984H175.231C175.279 185.288 176.687 184.024 178.527 184.024C180.447 184.024 181.743 185.192 181.743 186.856C181.743 187.976 181.071 188.872 179.887 189.368C181.375 189.736 182.239 190.696 182.239 192.008C182.239 193.864 180.767 195.144 178.591 195.144ZM187.384 184.04C189.544 184.04 191.144 185.592 191.144 187.576C191.144 188.904 190.616 189.736 189.704 190.888L186.456 195H185.176L188.424 190.872C187.992 191.048 187.544 191.112 187.144 191.112C185.128 191.112 183.608 189.72 183.608 187.608C183.608 185.592 185.208 184.04 187.384 184.04ZM187.368 184.968C185.848 184.968 184.76 186.072 184.76 187.576C184.76 189.192 185.848 190.264 187.368 190.264C188.856 190.264 189.992 189.336 189.992 187.608C189.992 186.072 188.856 184.968 187.368 184.968ZM196.149 184.04C198.309 184.04 199.909 185.592 199.909 187.576C199.909 188.904 199.381 189.736 198.469 190.888L195.221 195H193.941L197.189 190.872C196.757 191.048 196.309 191.112 195.909 191.112C193.893 191.112 192.373 189.72 192.373 187.608C192.373 185.592 193.973 184.04 196.149 184.04ZM196.133 184.968C194.613 184.968 193.525 186.072 193.525 187.576C193.525 189.192 194.613 190.264 196.133 190.264C197.621 190.264 198.757 189.336 198.757 187.608C198.757 186.072 197.621 184.968 196.133 184.968ZM204.763 195.144C202.619 195.144 201.147 193.88 201.099 192.008H202.187C202.251 193.368 203.259 194.232 204.763 194.232C206.315 194.232 207.259 193.384 207.259 192.024C207.259 190.728 206.203 189.896 204.539 189.896H203.467V188.968H204.507C205.835 188.968 206.763 188.12 206.763 186.904C206.763 185.736 205.899 184.936 204.667 184.936C203.387 184.936 202.539 185.736 202.475 186.984H201.403C201.451 185.288 202.859 184.024 204.699 184.024C206.619 184.024 207.915 185.192 207.915 186.856C207.915 187.976 207.243 188.872 206.059 189.368C207.547 189.736 208.411 190.696 208.411 192.008C208.411 193.864 206.939 195.144 204.763 195.144ZM210.191 189.608C210.191 186.024 211.567 184.024 214.031 184.024C216.479 184.024 217.871 186.024 217.871 189.608C217.871 193.192 216.511 195.16 214.031 195.16C211.535 195.16 210.191 193.192 210.191 189.608ZM211.343 189.608C211.343 192.584 212.255 194.168 214.031 194.168C215.775 194.168 216.719 192.6 216.719 189.608C216.719 186.6 215.775 185.016 214.031 185.016C212.287 185.016 211.343 186.584 211.343 189.608ZM225.969 184.824L221.649 195H220.449L224.721 185.176H218.913V184.184H225.969V184.824ZM233.846 194.008V195H227.318V194.36L230.774 190.456C232.086 188.968 232.566 188.168 232.566 187.128C232.566 185.912 231.67 185.016 230.406 185.016C229.094 185.016 228.166 185.928 228.166 187.272H227.078C227.078 185.384 228.47 184.024 230.454 184.024C232.342 184.024 233.734 185.288 233.734 187.032C233.734 188.2 233.27 189.08 231.606 190.936L228.966 194.008H233.846ZM235.425 189.608C235.425 186.024 236.801 184.024 239.265 184.024C241.713 184.024 243.105 186.024 243.105 189.608C243.105 193.192 241.745 195.16 239.265 195.16C236.769 195.16 235.425 193.192 235.425 189.608ZM236.577 189.608C236.577 192.584 237.489 194.168 239.265 194.168C241.009 194.168 241.953 192.6 241.953 189.608C241.953 186.6 241.009 185.016 239.265 185.016C237.521 185.016 236.577 186.584 236.577 189.608ZM244.738 189.608C244.738 186.024 246.114 184.024 248.578 184.024C251.026 184.024 252.418 186.024 252.418 189.608C252.418 193.192 251.058 195.16 248.578 195.16C246.082 195.16 244.738 193.192 244.738 189.608ZM245.89 189.608C245.89 192.584 246.802 194.168 248.578 194.168C250.322 194.168 251.266 192.6 251.266 189.608C251.266 186.6 250.322 185.016 248.578 185.016C246.834 185.016 245.89 186.584 245.89 189.608ZM257.586 195.144C255.426 195.144 253.826 193.592 253.826 191.608C253.826 190.2 254.402 189.352 255.25 188.296L258.514 184.184H259.778L256.53 188.296C256.978 188.136 257.41 188.056 257.81 188.056C259.826 188.056 261.362 189.448 261.362 191.576C261.362 193.592 259.762 195.144 257.586 195.144ZM257.602 194.216C259.09 194.216 260.21 193.112 260.21 191.608C260.21 189.992 259.09 188.92 257.602 188.92C256.098 188.92 254.978 189.848 254.978 191.576C254.978 193.112 256.098 194.216 257.602 194.216ZM266.325 195.144C264.181 195.144 262.709 193.88 262.661 192.008H263.749C263.813 193.368 264.821 194.232 266.325 194.232C267.877 194.232 268.821 193.384 268.821 192.024C268.821 190.728 267.765 189.896 266.101 189.896H265.029V188.968H266.069C267.397 188.968 268.325 188.12 268.325 186.904C268.325 185.736 267.461 184.936 266.229 184.936C264.949 184.936 264.101 185.736 264.037 186.984H262.965C263.013 185.288 264.421 184.024 266.261 184.024C268.181 184.024 269.477 185.192 269.477 186.856C269.477 187.976 268.805 188.872 267.621 189.368C269.109 189.736 269.973 190.696 269.973 192.008C269.973 193.864 268.501 195.144 266.325 195.144ZM275.196 195.144C273.036 195.144 271.436 193.592 271.436 191.608C271.436 190.2 272.012 189.352 272.86 188.296L276.124 184.184H277.388L274.14 188.296C274.588 188.136 275.02 188.056 275.42 188.056C277.436 188.056 278.972 189.448 278.972 191.576C278.972 193.592 277.372 195.144 275.196 195.144ZM275.212 194.216C276.7 194.216 277.82 193.112 277.82 191.608C277.82 189.992 276.7 188.92 275.212 188.92C273.708 188.92 272.588 189.848 272.588 191.576C272.588 193.112 273.708 194.216 275.212 194.216Z" fill="white"/>
<path d="M310.734 196L307.35 187.414V196H304.866V183.076H308.142L311.886 192.652L315.648 183.076H318.924V196H316.44V187.342L313.02 196H310.734ZM327.073 196V194.812C326.443 195.712 325.489 196.18 324.175 196.18C322.177 196.18 320.845 195.01 320.845 193.21C320.845 191.338 322.357 190.33 325.165 190.33C325.705 190.33 326.173 190.366 326.767 190.438V189.862C326.767 188.782 326.155 188.152 325.111 188.152C324.031 188.152 323.383 188.782 323.293 189.862H321.043C321.187 187.648 322.789 186.208 325.111 186.208C327.631 186.208 329.107 187.594 329.107 189.952V196H327.073ZM323.203 193.138C323.203 193.948 323.779 194.452 324.715 194.452C325.993 194.452 326.767 193.75 326.767 192.634V191.95C326.173 191.86 325.759 191.824 325.327 191.824C323.905 191.824 323.203 192.274 323.203 193.138ZM333.153 196H330.363L333.603 191.104L330.579 186.388H333.459L335.421 189.7L337.401 186.388H340.029L337.041 191.194L340.263 196H337.419L335.259 192.544L333.153 196Z" fill="#DB8BFE"/>
<rect x="40" y="230" width="450" height="52" rx="12" fill="#252425"/>
<path d="M79.9332 254.208C79.8315 253.9 79.5264 253.797 79.2212 253.797H73.4239L75.1529 247.03C75.2546 246.722 75.0512 246.312 74.7461 246.107C74.441 245.902 74.0342 246.004 73.8307 246.312L64.1685 257.899C63.9651 258.104 63.9651 258.412 64.0668 258.719C64.1685 259.027 64.4736 259.13 64.7788 259.13H70.6778L69.8641 265.077C69.8641 265.385 69.9658 265.795 70.271 265.897C70.3727 265.897 70.4744 266 70.5761 266C70.7795 266 70.9829 265.897 71.1863 265.692L79.8315 255.028C80.0349 254.72 80.0349 254.413 79.9332 254.208Z" fill="#C2E95A"/>
<rect x="96" y="246" width="350" height="6" rx="3" fill="#3D3D3D"/>
<rect x="96" y="260" width="204" height="6" rx="3" fill="#3D3D3D"/>
<rect x="40" y="315" width="450" height="58.6135" rx="20" fill="#6B0099"/>
<path d="M260.425 346.83C260.425 349.022 258.81 350.307 256.207 350.307H251.577V338.477H256.026C258.514 338.477 260.046 339.597 260.046 341.624C260.046 342.711 259.436 343.584 258.382 344.128C259.7 344.589 260.425 345.529 260.425 346.83ZM255.828 340.454H253.851V343.205H255.828C257.047 343.205 257.674 342.678 257.674 341.821C257.674 340.981 257.047 340.454 255.828 340.454ZM256.009 345.199H253.851V348.33H256.009C257.361 348.33 258.069 347.736 258.069 346.731C258.069 345.792 257.361 345.199 256.009 345.199ZM267.402 346.6V341.508H269.676V350.307H267.583V349.153C267.105 349.928 266.133 350.471 265.013 350.471C263.25 350.471 261.965 349.4 261.965 347.11V341.508H264.255V346.665C264.255 347.901 264.865 348.445 265.787 348.445C266.611 348.445 267.402 347.786 267.402 346.6ZM279.658 341.508L275.375 353.487H272.887L274.139 350.208L270.679 341.508H273.15L275.358 347.539L277.368 341.508H279.658Z" fill="white"/>
</svg>
