<svg width="520" height="553" viewBox="0 0 520 553" fill="none" xmlns="http://www.w3.org/2000/svg">
<path d="M110 40C110 17.9086 127.909 0 150 0H480C502.091 0 520 17.9086 520 40V553H110V40Z" fill="#181718"/>
<path d="M151.223 121.512H147.607V129H142.743V106.024H151.223C156.823 106.024 160.311 108.68 160.311 113.672C160.311 118.664 156.823 121.512 151.223 121.512ZM151.191 110.12H147.607V117.416H151.191C153.943 117.416 155.479 115.976 155.479 113.704C155.479 111.432 153.943 110.12 151.191 110.12ZM170.474 129.32C165.514 129.32 161.802 125.416 161.802 120.456C161.802 115.464 165.514 111.592 170.474 111.592C175.434 111.592 179.146 115.464 179.146 120.456C179.146 125.416 175.434 129.32 170.474 129.32ZM170.474 125.384C172.682 125.384 174.57 123.624 174.57 120.456C174.57 117.288 172.682 115.56 170.474 115.56C168.266 115.56 166.378 117.288 166.378 120.456C166.378 123.624 168.266 125.384 170.474 125.384ZM189.536 129.32C184.576 129.32 180.864 125.416 180.864 120.456C180.864 115.464 184.576 111.592 189.536 111.592C194.496 111.592 198.208 115.464 198.208 120.456C198.208 125.416 194.496 129.32 189.536 129.32ZM189.536 125.384C191.744 125.384 193.632 123.624 193.632 120.456C193.632 117.288 191.744 115.56 189.536 115.56C187.328 115.56 185.44 117.288 185.44 120.456C185.44 123.624 187.328 125.384 189.536 125.384ZM205.527 129H201.047V106.024H205.527V129ZM223.947 123.528C223.947 127.112 221.227 129.32 216.363 129.32C211.499 129.32 208.779 126.984 208.427 123.176H212.683C212.715 124.936 214.219 126.056 216.427 126.056C218.155 126.056 219.467 125.512 219.467 124.296C219.467 123.208 218.763 122.76 217.131 122.44L214.059 121.864C210.987 121.32 209.131 119.624 209.131 116.968C209.131 113.8 211.851 111.592 216.107 111.592C220.395 111.592 223.339 113.864 223.659 117.544H219.403C219.243 115.88 217.995 114.856 216.107 114.856C214.475 114.856 213.387 115.464 213.387 116.552C213.387 117.576 214.091 117.992 215.627 118.28L218.923 118.888C222.251 119.528 223.947 121.064 223.947 123.528Z" fill="white"/>
<path d="M140.375 50.2548C140.375 51.8205 141.96 53.0903 143.915 53.0903C145.87 53.0903 147.455 51.8205 147.455 50.2548C147.455 49.1069 145.377 48.027 145.377 46.0017C145.377 44.1789 147.455 42.8965 147.455 41.7485C147.455 40.1829 145.87 38.9131 143.915 38.9131C141.96 38.9131 140.375 40.1829 140.375 41.7485C140.375 42.8965 142.453 44.1789 142.453 46.0017C142.453 47.8245 140.375 49.1069 140.375 50.2548Z" fill="#C2E95A"/>
<path d="M157.57 32.8354C157.57 31.2698 159.155 30 161.111 30C163.066 30 164.651 31.2698 164.651 32.8354C164.651 33.3285 164.267 33.809 163.83 34.3572C163.249 35.0854 162.573 35.9331 162.573 37.0886C162.573 38.1048 163.219 38.9532 163.79 39.7038C164.244 40.2995 164.651 40.8338 164.651 41.3417C164.651 41.4098 164.648 41.4774 164.642 41.5442C164.648 41.6111 164.651 41.6786 164.651 41.7467C164.651 42.2398 164.267 42.7202 163.83 43.2685C163.249 43.9967 162.573 44.8444 162.573 45.9999C162.573 47.0161 163.219 47.8644 163.79 48.6151C164.244 49.2108 164.651 49.7451 164.651 50.253C164.651 50.3211 164.648 50.3886 164.642 50.4555C164.648 50.5224 164.651 50.59 164.651 50.658C164.651 51.166 164.244 51.7002 163.79 52.2959C163.219 53.0466 162.573 53.8949 162.573 54.9112C162.573 56.0666 163.249 56.9144 163.83 57.6426C164.267 58.1908 164.651 58.6713 164.651 59.1643C164.651 60.73 163.066 62 161.111 62C159.155 62 157.57 60.73 157.57 59.1643C157.57 58.6564 157.977 58.1222 158.431 57.5265C159.002 56.7758 159.648 55.9275 159.648 54.9112C159.648 53.8949 159.002 53.0466 158.431 52.2959C157.977 51.7002 157.57 51.166 157.57 50.658C157.57 50.59 157.573 50.5224 157.579 50.4556C157.573 50.3887 157.57 50.3211 157.57 50.253C157.57 49.7451 157.977 49.2108 158.431 48.6151C159.002 47.8644 159.648 47.0161 159.648 45.9999C159.648 44.9836 159.002 44.1353 158.431 43.3846C157.977 42.7889 157.57 42.2546 157.57 41.7467C157.57 41.6786 157.573 41.6111 157.579 41.5442C157.573 41.4774 157.57 41.4098 157.57 41.3417C157.57 40.8338 157.977 40.2995 158.431 39.7038C159.002 38.9532 159.648 38.1048 159.648 37.0886C159.648 36.0723 159.002 35.224 158.431 34.4733C157.977 33.8776 157.57 33.3433 157.57 32.8354Z" fill="#C2E95A"/>
<path d="M152.513 57.5446C150.558 57.5446 148.973 56.2748 148.973 54.7091C148.973 54.2012 149.379 53.667 149.833 53.0712C150.405 52.3205 151.051 51.4723 151.051 50.456C151.051 49.4397 150.405 48.5914 149.833 47.8407C149.379 47.245 148.973 46.7108 148.973 46.2028C148.973 46.1347 148.976 46.0672 148.982 46.0003C148.976 45.9334 148.973 45.8659 148.973 45.7978C148.973 45.2898 149.379 44.7556 149.833 44.1599C150.405 43.4092 151.051 42.5609 151.051 41.5446C151.051 40.5284 150.405 39.68 149.833 38.9293C149.379 38.3336 148.973 37.7994 148.973 37.2915C148.973 35.7258 150.558 34.4561 152.513 34.4561C154.468 34.4561 156.053 35.7258 156.053 37.2915C156.053 37.7845 155.67 38.265 155.232 38.8133C154.651 39.5414 153.975 40.3892 153.975 41.5446C153.975 42.5609 154.621 43.4092 155.193 44.1599C155.646 44.7556 156.053 45.2898 156.053 45.7978C156.053 45.8658 156.05 45.9334 156.044 46.0003C156.05 46.0672 156.053 46.1347 156.053 46.2028C156.053 46.7108 155.646 47.245 155.193 47.8407C154.621 48.5914 153.975 49.4397 153.975 50.456C153.975 51.6114 154.651 52.4592 155.232 53.1873C155.67 53.7356 156.053 54.2161 156.053 54.7091C156.053 56.2748 154.468 57.5446 152.513 57.5446Z" fill="#C2E95A"/>
<g opacity="0.5">
<rect x="140.375" y="156" width="350" height="104" rx="20" fill="#252425"/>
<circle cx="182.375" cy="208" r="21.5" fill="#3E3E3E" stroke="#252425"/>
<circle cx="206.375" cy="208" r="21.5" fill="#3E3E3E" stroke="#252425"/>
<rect x="240.375" y="191" width="73" height="16" rx="8" fill="#3E3E3E"/>
<rect x="240.375" y="219" width="113" height="6" rx="3" fill="#3E3E3E"/>
<rect x="379.375" y="191" width="91" height="34" rx="17" fill="#DB8BFE" fill-opacity="0.15"/>
<path d="M398.383 214H396.623V202.512H398.383V214ZM402.361 209.216V214H400.745V205.52H402.249V206.928C402.825 205.984 403.785 205.36 404.953 205.36C406.697 205.36 407.849 206.48 407.849 208.512V214H406.233V209.056C406.233 207.6 405.593 206.784 404.393 206.784C403.289 206.784 402.361 207.712 402.361 209.216ZM415.131 214V212.688C414.603 213.632 413.659 214.16 412.411 214.16C410.651 214.16 409.499 213.152 409.499 211.6C409.499 209.936 410.827 209.072 413.355 209.072C413.851 209.072 414.251 209.088 414.939 209.168V208.544C414.939 207.328 414.283 206.64 413.163 206.64C411.979 206.64 411.259 207.344 411.211 208.528H409.739C409.819 206.624 411.179 205.36 413.163 205.36C415.259 205.36 416.475 206.544 416.475 208.56V214H415.131ZM411.035 211.552C411.035 212.432 411.691 213.008 412.731 213.008C414.091 213.008 414.939 212.16 414.939 210.864V210.176C414.315 210.096 413.867 210.08 413.451 210.08C411.835 210.08 411.035 210.56 411.035 211.552ZM421.98 214.176C419.66 214.176 418.028 212.352 418.028 209.76C418.028 207.2 419.692 205.36 421.98 205.36C424.076 205.36 425.596 206.752 425.9 208.96H424.204C424.028 207.6 423.18 206.784 421.996 206.784C420.604 206.784 419.692 207.968 419.692 209.76C419.692 211.568 420.604 212.736 421.996 212.736C423.196 212.736 424.028 211.936 424.22 210.56H425.9C425.612 212.8 424.108 214.176 421.98 214.176ZM432.31 212.432V213.856C431.814 214.08 431.382 214.16 430.87 214.16C429.302 214.16 428.214 213.312 428.214 211.44V206.896H426.342V205.52H428.214V203.008H429.83V205.52H432.39V206.896H429.83V211.072C429.83 212.24 430.39 212.656 431.254 212.656C431.638 212.656 431.974 212.592 432.31 212.432ZM435.901 203.552C435.901 204.16 435.421 204.624 434.733 204.624C434.045 204.624 433.549 204.16 433.549 203.552C433.549 202.928 434.045 202.48 434.733 202.48C435.421 202.48 435.901 202.928 435.901 203.552ZM435.549 214H433.933V205.52H435.549V214ZM444.832 205.52L441.648 214H439.888L436.704 205.52H438.448L440.8 212.144L443.184 205.52H444.832ZM449.202 214.16C446.754 214.16 445.106 212.384 445.106 209.712C445.106 207.2 446.818 205.36 449.154 205.36C451.682 205.36 453.362 207.408 453.074 210.16H446.754C446.882 211.888 447.746 212.896 449.17 212.896C450.37 212.896 451.202 212.24 451.474 211.136H453.074C452.658 213.024 451.202 214.16 449.202 214.16ZM449.122 206.576C447.826 206.576 446.946 207.504 446.77 209.088H451.362C451.282 207.52 450.434 206.576 449.122 206.576Z" fill="#DB8BFE"/>
</g>
<g opacity="0.5">
<rect x="140" y="383" width="350" height="104" rx="20" fill="#252425"/>
<circle cx="182" cy="435" r="21.5" fill="#3E3E3E" stroke="#252425"/>
<circle cx="206" cy="435" r="21.5" fill="#3E3E3E" stroke="#252425"/>
<rect x="240" y="418" width="73" height="16" rx="8" fill="#3E3E3E"/>
<rect x="240" y="446" width="113" height="6" rx="3" fill="#3E3E3E"/>
<rect x="379" y="418" width="91" height="34" rx="17" fill="#DB8BFE" fill-opacity="0.15"/>
<path d="M398.008 441H396.248V429.512H398.008V441ZM401.986 436.216V441H400.37V432.52H401.874V433.928C402.45 432.984 403.41 432.36 404.578 432.36C406.322 432.36 407.474 433.48 407.474 435.512V441H405.858V436.056C405.858 434.6 405.218 433.784 404.018 433.784C402.914 433.784 401.986 434.712 401.986 436.216ZM414.756 441V439.688C414.228 440.632 413.284 441.16 412.036 441.16C410.276 441.16 409.124 440.152 409.124 438.6C409.124 436.936 410.452 436.072 412.98 436.072C413.476 436.072 413.876 436.088 414.564 436.168V435.544C414.564 434.328 413.908 433.64 412.788 433.64C411.604 433.64 410.884 434.344 410.836 435.528H409.364C409.444 433.624 410.804 432.36 412.788 432.36C414.884 432.36 416.1 433.544 416.1 435.56V441H414.756ZM410.66 438.552C410.66 439.432 411.316 440.008 412.356 440.008C413.716 440.008 414.564 439.16 414.564 437.864V437.176C413.94 437.096 413.492 437.08 413.076 437.08C411.46 437.08 410.66 437.56 410.66 438.552ZM421.605 441.176C419.285 441.176 417.653 439.352 417.653 436.76C417.653 434.2 419.317 432.36 421.605 432.36C423.701 432.36 425.221 433.752 425.525 435.96H423.829C423.653 434.6 422.805 433.784 421.621 433.784C420.229 433.784 419.317 434.968 419.317 436.76C419.317 438.568 420.229 439.736 421.621 439.736C422.821 439.736 423.653 438.936 423.845 437.56H425.525C425.237 439.8 423.733 441.176 421.605 441.176ZM431.935 439.432V440.856C431.439 441.08 431.007 441.16 430.495 441.16C428.927 441.16 427.839 440.312 427.839 438.44V433.896H425.967V432.52H427.839V430.008H429.455V432.52H432.015V433.896H429.455V438.072C429.455 439.24 430.015 439.656 430.879 439.656C431.263 439.656 431.599 439.592 431.935 439.432ZM435.526 430.552C435.526 431.16 435.046 431.624 434.358 431.624C433.67 431.624 433.174 431.16 433.174 430.552C433.174 429.928 433.67 429.48 434.358 429.48C435.046 429.48 435.526 429.928 435.526 430.552ZM435.174 441H433.558V432.52H435.174V441ZM444.457 432.52L441.273 441H439.513L436.329 432.52H438.073L440.425 439.144L442.809 432.52H444.457ZM448.827 441.16C446.379 441.16 444.731 439.384 444.731 436.712C444.731 434.2 446.443 432.36 448.779 432.36C451.307 432.36 452.987 434.408 452.699 437.16H446.379C446.507 438.888 447.371 439.896 448.795 439.896C449.995 439.896 450.827 439.24 451.099 438.136H452.699C452.283 440.024 450.827 441.16 448.827 441.16ZM448.747 433.576C447.451 433.576 446.571 434.504 446.395 436.088H450.987C450.907 434.52 450.059 433.576 448.747 433.576Z" fill="#DB8BFE"/>
</g>
<rect y="230" width="489.375" height="145" rx="27.8846" fill="#2F2D2F"/>
<circle cx="58.5578" cy="302.5" r="29.976" fill="#4A4A4A" stroke="#2F2D2F" stroke-width="1.39423"/>
<circle cx="92.0193" cy="302.5" r="29.976" fill="#4A4A4A" stroke="#2F2D2F" stroke-width="1.39423"/>
<rect x="139.423" y="278.798" width="101.779" height="22.3077" rx="11.1538" fill="#4A4A4A"/>
<rect x="139.423" y="317.837" width="157.548" height="8.36539" rx="4.18269" fill="#4A4A4A"/>
<rect x="350.875" y="278.923" width="110.615" height="47.1538" rx="23.5769" fill="#075400"/>
<path d="M385.943 311.5L384.493 307.53H377.577L376.105 311.5H373.629L379.763 295.484H382.463L388.553 311.5H385.943ZM381.057 298.16L378.313 305.544H383.756L381.057 298.16ZM394.569 311.746C391.334 311.746 389.059 309.203 389.059 305.589C389.059 302.02 391.379 299.454 394.569 299.454C397.491 299.454 399.61 301.395 400.034 304.474H397.669C397.424 302.577 396.242 301.44 394.591 301.44C392.65 301.44 391.379 303.09 391.379 305.589C391.379 308.11 392.65 309.738 394.591 309.738C396.264 309.738 397.424 308.623 397.692 306.704H400.034C399.633 309.827 397.536 311.746 394.569 311.746ZM408.972 309.314V311.3C408.28 311.612 407.678 311.724 406.964 311.724C404.778 311.724 403.261 310.541 403.261 307.931V301.596H400.651V299.677H403.261V296.175H405.514V299.677H409.084V301.596H405.514V307.418C405.514 309.047 406.295 309.627 407.5 309.627C408.035 309.627 408.504 309.537 408.972 309.314ZM413.978 296.934C413.978 297.781 413.308 298.428 412.349 298.428C411.39 298.428 410.698 297.781 410.698 296.934C410.698 296.064 411.39 295.439 412.349 295.439C413.308 295.439 413.978 296.064 413.978 296.934ZM413.487 311.5H411.234V299.677H413.487V311.5ZM426.43 299.677L421.991 311.5H419.537L415.098 299.677H417.529L420.808 308.913L424.132 299.677H426.43ZM432.523 311.724C429.11 311.724 426.812 309.247 426.812 305.522C426.812 302.02 429.199 299.454 432.456 299.454C435.98 299.454 438.323 302.31 437.921 306.147H429.11C429.288 308.556 430.493 309.961 432.478 309.961C434.151 309.961 435.311 309.047 435.69 307.507H437.921C437.341 310.14 435.311 311.724 432.523 311.724ZM432.411 301.15C430.604 301.15 429.377 302.444 429.132 304.652H435.534C435.423 302.466 434.24 301.15 432.411 301.15Z" fill="white"/>
<g opacity="0.5">
<rect x="140" y="495" width="350" height="104" rx="20" fill="#252425"/>
<circle cx="182" cy="547" r="21.5" fill="#3E3E3E" stroke="#252425"/>
<circle cx="206" cy="547" r="21.5" fill="#3E3E3E" stroke="#252425"/>
<rect x="240" y="530" width="73" height="16" rx="8" fill="#3E3E3E"/>
<rect x="390" y="530" width="80" height="34" rx="17" fill="#293607" fill-opacity="0.15"/>
<path d="M415.152 553L414.112 550.152H409.152L408.096 553H406.32L410.72 541.512H412.656L417.024 553H415.152ZM411.648 543.432L409.68 548.728H413.584L411.648 543.432ZM421.339 553.176C419.019 553.176 417.387 551.352 417.387 548.76C417.387 546.2 419.051 544.36 421.339 544.36C423.435 544.36 424.955 545.752 425.259 547.96H423.563C423.387 546.6 422.539 545.784 421.355 545.784C419.963 545.784 419.051 546.968 419.051 548.76C419.051 550.568 419.963 551.736 421.355 551.736C422.555 551.736 423.387 550.936 423.579 549.56H425.259C424.971 551.8 423.467 553.176 421.339 553.176ZM431.67 551.432V552.856C431.174 553.08 430.742 553.16 430.23 553.16C428.662 553.16 427.574 552.312 427.574 550.44V545.896H425.702V544.52H427.574V542.008H429.19V544.52H431.75V545.896H429.19V550.072C429.19 551.24 429.75 551.656 430.614 551.656C430.998 551.656 431.334 551.592 431.67 551.432ZM435.26 542.552C435.26 543.16 434.78 543.624 434.092 543.624C433.404 543.624 432.908 543.16 432.908 542.552C432.908 541.928 433.404 541.48 434.092 541.48C434.78 541.48 435.26 541.928 435.26 542.552ZM434.908 553H433.292V544.52H434.908V553ZM444.191 544.52L441.007 553H439.247L436.063 544.52H437.807L440.159 551.144L442.543 544.52H444.191ZM448.561 553.16C446.113 553.16 444.465 551.384 444.465 548.712C444.465 546.2 446.177 544.36 448.513 544.36C451.041 544.36 452.721 546.408 452.433 549.16H446.113C446.241 550.888 447.105 551.896 448.529 551.896C449.729 551.896 450.561 551.24 450.833 550.136H452.433C452.017 552.024 450.561 553.16 448.561 553.16ZM448.481 545.576C447.185 545.576 446.305 546.504 446.129 548.088H450.721C450.641 546.52 449.793 545.576 448.481 545.576Z" fill="#C2E95A"/>
</g>
</svg>
