<svg width="530" height="420" viewBox="0 0 530 420" fill="none" xmlns="http://www.w3.org/2000/svg">
<rect width="530" height="420" rx="32" fill="#181718"/>
<rect x="40" y="88" width="450" height="100" rx="20" fill="#252425"/>
<rect x="64" y="120" width="48" height="6" rx="3" fill="#3D3D3D"/>
<rect x="64" y="136" width="112" height="20" rx="10" fill="#3D3D3D"/>
<rect x="360" y="120" width="106" height="36" rx="18" fill="#3D3D3D"/>
<rect x="40" y="200" width="450" height="100" rx="20" fill="#252425"/>
<rect x="64" y="232" width="48" height="6" rx="3" fill="#3D3D3D"/>
<rect x="64" y="248" width="162" height="20" rx="10" fill="#3D3D3D"/>
<rect x="360" y="232" width="106" height="36" rx="18" fill="#3D3D3D"/>
<rect x="40" y="321" width="450" height="58.6135" rx="20" fill="#6B0099"/>
<path d="M253.761 352.632C253.761 354.89 251.949 356.471 248.983 356.471C246.001 356.471 244.139 354.873 243.958 352.369H246.495C246.561 353.67 247.401 354.511 248.934 354.511C250.202 354.511 251.109 353.951 251.109 352.995C251.109 352.254 250.532 351.809 249.527 351.611L247.583 351.232C245.787 350.886 244.403 349.914 244.403 347.953C244.403 345.844 246.265 344.329 248.818 344.329C251.471 344.329 253.415 345.877 253.58 348.349H251.043C250.96 347.113 250.104 346.273 248.851 346.273C247.632 346.273 246.94 346.965 246.94 347.789C246.94 348.596 247.682 348.942 248.538 349.107L250.565 349.518C252.641 349.93 253.761 350.886 253.761 352.632ZM262.595 356.307L260.93 350.589L259.283 356.307H256.993L254.488 347.508H256.713L258.212 353.077L259.827 347.508H262.084L263.649 353.077L265.132 347.508H267.389L264.868 356.307H262.595ZM273.473 356.307V355.219C272.897 356.043 272.023 356.471 270.821 356.471C268.992 356.471 267.773 355.4 267.773 353.753C267.773 352.039 269.157 351.117 271.727 351.117C272.221 351.117 272.649 351.15 273.193 351.216V350.688C273.193 349.7 272.633 349.123 271.677 349.123C270.689 349.123 270.096 349.7 270.013 350.688H267.954C268.086 348.662 269.552 347.344 271.677 347.344C273.984 347.344 275.335 348.612 275.335 350.771V356.307H273.473ZM269.931 353.687C269.931 354.428 270.458 354.89 271.315 354.89C272.485 354.89 273.193 354.247 273.193 353.226V352.6C272.649 352.517 272.271 352.484 271.875 352.484C270.573 352.484 269.931 352.896 269.931 353.687ZM286.09 351.908C286.09 354.511 284.558 356.471 282.186 356.471C281.148 356.471 280.258 356.027 279.599 355.17V359.487H277.309V347.508H279.418V348.794C280.093 347.854 281.065 347.344 282.186 347.344C284.558 347.344 286.09 349.321 286.09 351.908ZM283.734 351.908C283.734 350.26 282.795 349.37 281.675 349.37C280.554 349.37 279.615 350.243 279.615 351.908C279.615 353.572 280.554 354.428 281.675 354.428C282.795 354.428 283.734 353.588 283.734 351.908Z" fill="white"/>
<path d="M52.5 57.54C52.5 60.28 50.3 62.2 46.7 62.2C43.08 62.2 40.82 60.26 40.6 57.22H43.68C43.76 58.8 44.78 59.82 46.64 59.82C48.18 59.82 49.28 59.14 49.28 57.98C49.28 57.08 48.58 56.54 47.36 56.3L45 55.84C42.82 55.42 41.14 54.24 41.14 51.86C41.14 49.3 43.4 47.46 46.5 47.46C49.72 47.46 52.08 49.34 52.28 52.34H49.2C49.1 50.84 48.06 49.82 46.54 49.82C45.06 49.82 44.22 50.66 44.22 51.66C44.22 52.64 45.12 53.06 46.16 53.26L48.62 53.76C51.14 54.26 52.5 55.42 52.5 57.54ZM63.2227 62L61.2027 55.06L59.2027 62H56.4227L53.3827 51.32H56.0827L57.9027 58.08L59.8627 51.32H62.6027L64.5027 58.08L66.3027 51.32H69.0427L65.9827 62H63.2227ZM76.4281 62V60.68C75.7281 61.68 74.6681 62.2 73.2081 62.2C70.9881 62.2 69.5081 60.9 69.5081 58.9C69.5081 56.82 71.1881 55.7 74.3081 55.7C74.9081 55.7 75.4281 55.74 76.0881 55.82V55.18C76.0881 53.98 75.4081 53.28 74.2481 53.28C73.0481 53.28 72.3281 53.98 72.2281 55.18H69.7281C69.8881 52.72 71.6681 51.12 74.2481 51.12C77.0481 51.12 78.6881 52.66 78.6881 55.28V62H76.4281ZM72.1281 58.82C72.1281 59.72 72.7681 60.28 73.8081 60.28C75.2281 60.28 76.0881 59.5 76.0881 58.26V57.5C75.4281 57.4 74.9681 57.36 74.4881 57.36C72.9081 57.36 72.1281 57.86 72.1281 58.82ZM91.7438 56.66C91.7438 59.82 89.8838 62.2 87.0038 62.2C85.7438 62.2 84.6638 61.66 83.8638 60.62V65.86H81.0838V51.32H83.6438V52.88C84.4638 51.74 85.6438 51.12 87.0038 51.12C89.8838 51.12 91.7438 53.52 91.7438 56.66ZM88.8838 56.66C88.8838 54.66 87.7438 53.58 86.3838 53.58C85.0238 53.58 83.8838 54.64 83.8838 56.66C83.8838 58.68 85.0238 59.72 86.3838 59.72C87.7438 59.72 88.8838 58.7 88.8838 56.66Z" fill="white"/>
<path d="M123.529 57.78C123.529 60.44 121.569 62 118.409 62H112.789V47.64H118.189C121.209 47.64 123.069 49 123.069 51.46C123.069 52.78 122.329 53.84 121.049 54.5C122.649 55.06 123.529 56.2 123.529 57.78ZM117.949 50.04H115.549V53.38H117.949C119.429 53.38 120.189 52.74 120.189 51.7C120.189 50.68 119.429 50.04 117.949 50.04ZM118.169 55.8H115.549V59.6H118.169C119.809 59.6 120.669 58.88 120.669 57.66C120.669 56.52 119.809 55.8 118.169 55.8ZM131.998 57.5V51.32H134.758V62H132.218V60.6C131.638 61.54 130.458 62.2 129.098 62.2C126.958 62.2 125.398 60.9 125.398 58.12V51.32H128.178V57.58C128.178 59.08 128.918 59.74 130.038 59.74C131.038 59.74 131.998 58.94 131.998 57.5ZM146.876 51.32L141.676 65.86H138.656L140.176 61.88L135.976 51.32H138.976L141.656 58.64L144.096 51.32H146.876Z" fill="#595959"/>
<path d="M157.309 54C157.309 46.268 163.577 40 171.309 40H242.615C250.347 40 256.615 46.268 256.615 54C256.615 61.732 250.347 68 242.615 68H171.309C163.577 68 157.309 61.732 157.309 54Z" fill="#293607"/>
<path d="M171.545 58.78C168.945 58.78 166.93 56.661 166.93 53.905C166.93 51.162 168.945 49.056 171.545 49.056C173.885 49.056 175.757 50.616 176.108 52.917H174.587C174.327 51.409 173.105 50.343 171.558 50.343C169.712 50.343 168.412 51.838 168.412 53.905C168.412 55.998 169.712 57.493 171.558 57.493C173.105 57.493 174.327 56.414 174.587 54.906H176.108C175.757 57.22 173.885 58.78 171.545 58.78ZM180.376 58.715C178.426 58.715 176.996 57.181 176.996 55.14C176.996 53.099 178.426 51.565 180.376 51.565C182.326 51.565 183.756 53.099 183.756 55.14C183.756 57.181 182.326 58.715 180.376 58.715ZM180.376 57.558C181.507 57.558 182.404 56.648 182.404 55.14C182.404 53.632 181.507 52.735 180.376 52.735C179.245 52.735 178.361 53.632 178.361 55.14C178.361 56.648 179.245 57.558 180.376 57.558ZM186.408 58.585H185.095V51.695H186.317V52.839C186.785 52.046 187.526 51.565 188.475 51.565C189.489 51.565 190.256 52.085 190.568 52.995C191.049 52.111 191.842 51.565 192.895 51.565C194.312 51.565 195.222 52.488 195.222 54.126V58.585H193.909V54.542C193.909 53.398 193.402 52.722 192.44 52.722C191.543 52.722 190.815 53.476 190.815 54.633V58.585H189.502V54.542C189.502 53.398 188.995 52.722 188.033 52.722C187.123 52.722 186.408 53.476 186.408 54.633V58.585ZM198.576 50.096C198.576 50.59 198.186 50.967 197.627 50.967C197.068 50.967 196.665 50.59 196.665 50.096C196.665 49.589 197.068 49.225 197.627 49.225C198.186 49.225 198.576 49.589 198.576 50.096ZM198.29 58.585H196.977V51.695H198.29V58.585ZM201.426 54.698V58.585H200.113V51.695H201.335V52.839C201.803 52.072 202.583 51.565 203.532 51.565C204.949 51.565 205.885 52.475 205.885 54.126V58.585H204.572V54.568C204.572 53.385 204.052 52.722 203.077 52.722C202.18 52.722 201.426 53.476 201.426 54.698ZM210.385 61.237C208.578 61.237 207.408 60.275 207.33 58.715H208.604C208.682 59.677 209.306 60.197 210.372 60.197C211.555 60.197 212.179 59.56 212.179 58.377V57.129C211.789 57.961 211.009 58.442 210.073 58.442C208.357 58.442 207.135 57.025 207.135 54.997C207.135 52.943 208.305 51.565 210.034 51.565C211.022 51.565 211.802 52.046 212.27 52.917V51.695H213.492V58.351C213.492 60.158 212.335 61.237 210.385 61.237ZM208.461 54.997C208.461 56.427 209.163 57.298 210.307 57.298C211.425 57.298 212.179 56.401 212.179 55.036C212.179 53.606 211.438 52.696 210.307 52.696C209.176 52.696 208.461 53.58 208.461 54.997ZM223.486 56.531C223.486 57.883 222.433 58.715 220.6 58.715C218.78 58.715 217.701 57.818 217.571 56.336H218.832C218.884 57.194 219.573 57.727 220.626 57.727C221.549 57.727 222.16 57.402 222.16 56.752C222.16 56.18 221.809 55.933 220.951 55.764L219.833 55.556C218.559 55.309 217.844 54.659 217.844 53.619C217.844 52.41 218.897 51.565 220.496 51.565C222.147 51.565 223.265 52.449 223.382 53.866H222.121C222.043 53.034 221.432 52.553 220.509 52.553C219.677 52.553 219.118 52.904 219.118 53.502C219.118 54.061 219.469 54.321 220.301 54.477L221.471 54.698C222.836 54.945 223.486 55.543 223.486 56.531ZM227.806 58.715C225.856 58.715 224.426 57.181 224.426 55.14C224.426 53.099 225.856 51.565 227.806 51.565C229.756 51.565 231.186 53.099 231.186 55.14C231.186 57.181 229.756 58.715 227.806 58.715ZM227.806 57.558C228.937 57.558 229.834 56.648 229.834 55.14C229.834 53.632 228.937 52.735 227.806 52.735C226.675 52.735 225.791 53.632 225.791 55.14C225.791 56.648 226.675 57.558 227.806 57.558ZM235.41 58.715C233.46 58.715 232.03 57.181 232.03 55.14C232.03 53.099 233.46 51.565 235.41 51.565C237.36 51.565 238.79 53.099 238.79 55.14C238.79 57.181 237.36 58.715 235.41 58.715ZM235.41 57.558C236.541 57.558 237.438 56.648 237.438 55.14C237.438 53.632 236.541 52.735 235.41 52.735C234.279 52.735 233.395 53.632 233.395 55.14C233.395 56.648 234.279 57.558 235.41 57.558ZM241.442 54.698V58.585H240.129V51.695H241.351V52.839C241.819 52.072 242.599 51.565 243.548 51.565C244.965 51.565 245.901 52.475 245.901 54.126V58.585H244.588V54.568C244.588 53.385 244.068 52.722 243.093 52.722C242.196 52.722 241.442 53.476 241.442 54.698Z" fill="#C2E95A"/>
</svg>
