<svg width="24" height="25" viewBox="0 0 24 25" fill="none" xmlns="http://www.w3.org/2000/svg">
<g id="arrow_back" clip-path="url(#clip0_3713_26853)">
<path id="Vector" d="M19.0005 11.4997H7.83047L12.7105 6.61973C13.1005 6.22973 13.1005 5.58973 12.7105 5.19973C12.3205 4.80973 11.6905 4.80973 11.3005 5.19973L4.71047 11.7897C4.32047 12.1797 4.32047 12.8097 4.71047 13.1997L11.3005 19.7897C11.6905 20.1797 12.3205 20.1797 12.7105 19.7897C13.1005 19.3997 13.1005 18.7697 12.7105 18.3797L7.83047 13.4997H19.0005C19.5505 13.4997 20.0005 13.0497 20.0005 12.4997C20.0005 11.9497 19.5505 11.4997 19.0005 11.4997Z" fill="white"/>
</g>
<defs>
<clipPath id="clip0_3713_26853">
<rect width="24" height="24" fill="white" transform="translate(0 0.5)"/>
</clipPath>
</defs>
</svg>
