<svg width="48" height="48" viewBox="0 0 48 48" fill="none" xmlns="http://www.w3.org/2000/svg">
<rect width="48" height="48" rx="24" fill="black"/>
<path d="M32.2415 17.1857C30.7257 16.4902 29.1003 15.9778 27.4007 15.6843C27.3698 15.6786 27.3389 15.6928 27.3229 15.7211C27.1139 16.0929 26.8823 16.5779 26.7202 16.9592C24.8922 16.6855 23.0736 16.6855 21.2832 16.9592C21.121 16.5695 20.881 16.0929 20.671 15.7211C20.6551 15.6937 20.6242 15.6796 20.5932 15.6843C18.8946 15.9768 17.2692 16.4892 15.7525 17.1857C15.7393 17.1914 15.7281 17.2008 15.7206 17.2131C12.6374 21.8192 11.7928 26.3122 12.2072 30.7494C12.209 30.7711 12.2212 30.7919 12.2381 30.8051C14.2723 32.299 16.2427 33.2059 18.1766 33.807C18.2075 33.8164 18.2403 33.8051 18.26 33.7796C18.7175 33.1549 19.1253 32.4962 19.4749 31.8035C19.4955 31.763 19.4758 31.7148 19.4337 31.6988C18.7869 31.4534 18.171 31.1543 17.5785 30.8146C17.5317 30.7872 17.5279 30.7202 17.571 30.6881C17.6957 30.5947 17.8204 30.4975 17.9394 30.3993C17.961 30.3814 17.991 30.3776 18.0163 30.3889C21.9084 32.1659 26.1221 32.1659 29.9683 30.3889C29.9936 30.3767 30.0236 30.3805 30.0461 30.3984C30.1652 30.4965 30.2898 30.5947 30.4154 30.6881C30.4585 30.7202 30.4557 30.7872 30.4089 30.8146C29.8164 31.1609 29.2005 31.4534 28.5528 31.6978C28.5106 31.7139 28.4919 31.763 28.5125 31.8035C28.8696 32.4953 29.2774 33.154 29.7264 33.7787C29.7452 33.8051 29.7789 33.8164 29.8099 33.807C31.7531 33.2059 33.7235 32.299 35.7577 30.8051C35.7755 30.7919 35.7868 30.7721 35.7887 30.7504C36.2845 25.6204 34.9581 21.1643 32.2724 17.214C32.2659 17.2008 32.2546 17.1914 32.2415 17.1857ZM20.0561 28.0476C18.8843 28.0476 17.9188 26.9718 17.9188 25.6506C17.9188 24.3295 18.8656 23.2537 20.0561 23.2537C21.256 23.2537 22.2122 24.3389 22.1934 25.6506C22.1934 26.9718 21.2466 28.0476 20.0561 28.0476ZM27.9585 28.0476C26.7867 28.0476 25.8212 26.9718 25.8212 25.6506C25.8212 24.3295 26.768 23.2537 27.9585 23.2537C29.1584 23.2537 30.1145 24.3389 30.0958 25.6506C30.0958 26.9718 29.1584 28.0476 27.9585 28.0476Z" fill="white"/>
</svg>
