<svg width="40" height="40" viewBox="0 0 40 40" fill="none" xmlns="http://www.w3.org/2000/svg">
<path d="M32.4003 34.3999H8.40029C7.60029 34.3999 6.80029 34.9999 6.80029 35.9999C6.80029 36.9999 7.40029 37.5999 8.40029 37.5999H32.4003C33.2003 37.5999 34.0003 36.9999 34.0003 35.9999C34.0003 34.9999 33.2003 34.3999 32.4003 34.3999Z" fill="#C2E95A"/>
<path d="M20.4001 2C10.0001 2 1.6001 9.8 1.6001 19.6C1.6001 23.8 3.2001 27.8 6.0001 31C6.2001 31.4 6.6001 31.6 7.2001 31.6H34.0001C34.4001 31.6 34.8001 31.4 35.2001 31C38.0001 27.8 39.6001 23.8 39.6001 19.8C39.4001 9.8 30.8001 2 20.4001 2ZM21.8001 25.2V27.2C21.8001 28 21.2001 28.6 20.4001 28.6C19.6001 28.6 19.0001 28 19.0001 27.2V25.2C17.4001 25 16.2001 24.2 15.4001 22.8C15.0001 22.2 15.4001 21.2 16.0001 21C16.6001 20.6 17.6001 21 17.8001 21.6C18.0001 22.2 18.8001 22.4 19.4001 22.4H21.4001C22.6001 22.4 23.0001 21.5936 23.0001 21C23.0001 20.4064 23.0001 20 22.6001 19.6C22.2001 19.2 21.8001 19.2 21.4001 19.2H19.4001C17.0001 19.2 15.0001 17.2 15.0001 14.8C15.0001 13.6 15.4001 12.6 16.4001 11.6C17.0001 11 18.0001 10.6 19.0001 10.6V8.6C19.0001 7.8 19.6001 7.2 20.4001 7.2C21.2001 7.2 21.8001 7.8 21.8001 8.6V10.6C23.4001 10.8 24.6001 11.6 25.4001 13C25.8001 13.6 25.4001 14.6 24.8001 14.8C24.2001 15.2 23.2001 14.8 23.0001 14.2C22.5043 13.4 21.8425 13.4 21.2425 13.4H19.5256C19.1256 13.4 18.6001 13.4 18.2001 13.8C18.0001 14 17.8001 14.4 17.8001 14.8C17.8001 15.6 18.2001 16.4 19.4001 16.4H21.6001C22.8001 16.4 23.8001 16.8 24.8001 17.8C25.6001 18.6 26.0001 19.8 26.0001 21C26.0001 23.2 24.2001 25 21.8001 25.2Z" fill="#C2E95A"/>
</svg>
