<svg width="40" height="40" viewBox="0 0 40 40" fill="none" xmlns="http://www.w3.org/2000/svg">
<path d="M12.6001 15.3998C12.6001 19.5998 16.0001 22.9998 20.2001 22.9998C24.4001 22.9998 28.0001 19.5998 28.0001 15.3998C28.0001 11.1998 24.6001 7.7998 20.4001 7.7998C16.2001 7.7998 12.6001 11.1998 12.6001 15.3998Z" fill="#1BB20D"/>
<path d="M20.2 25.1997C15.2 25.1997 10.8 27.7997 8.19997 31.9997C7.79997 32.7997 7.59997 33.7997 8.19997 34.5997C8.59997 35.3997 9.39997 35.9997 10.4 35.9997L30.2 36.1997C31.2 36.1997 32 35.7997 32.4 34.9997C32.8 34.1997 32.8 33.1997 32.4 32.3997C29.8 27.7997 25.2 25.1997 20.2 25.1997Z" fill="#1BB20D"/>
<path d="M26.9998 7.7999C28.7998 6.7999 30.9998 7.3999 31.7998 9.1999C32.7998 10.9999 32.1998 13.1999 30.3998 13.9999C29.5998 14.3999 29.3998 15.3999 29.7998 15.9999C29.9998 16.3999 30.5998 16.7999 31.1998 16.7999C31.3998 16.7999 31.5998 16.7999 31.9998 16.5999C35.1998 14.7999 36.3998 10.7999 34.5998 7.5999C32.7998 4.3999 28.7998 3.1999 25.5998 4.9999C24.7998 5.3999 24.5998 6.3999 24.9998 6.9999C25.3998 7.5999 26.1998 8.1999 26.9998 7.7999Z" fill="#1BB20D"/>
<path d="M39.7999 25.5998C38.9999 22.1998 36.3999 19.5998 32.9999 18.5998C32.1999 18.3998 31.3999 18.7998 31.1999 19.5998C30.9999 20.3998 31.3999 21.1998 32.1999 21.3998C34.5999 22.1998 36.3999 23.9998 36.9999 26.3998C37.1999 26.9998 37.7999 27.5998 38.3999 27.5998C38.5999 27.5998 38.5999 27.5998 38.7999 27.5998C39.3999 27.1998 39.9999 26.3998 39.7999 25.5998Z" fill="#1BB20D"/>
<path d="M8.40019 16.5997C8.60019 16.7997 8.80019 16.7997 9.2002 16.7997C9.8002 16.7997 10.2002 16.5997 10.6002 15.9997C11.0002 15.3997 10.6002 14.5997 10.0002 13.9997C9.2002 13.5997 8.6002 12.7997 8.2002 11.9997C8.0002 10.9997 8.2002 9.99973 8.6002 9.19973C9.6002 7.39973 11.8002 6.99973 13.4002 7.79973C14.2002 8.19973 15.0002 7.99973 15.4002 7.19973C15.8002 6.39973 15.6002 5.59973 14.8002 5.19973C12.0002 3.39973 7.8002 4.59973 6.0002 7.59973C5.2002 9.19973 5.0002 10.9997 5.4002 12.5997C5.8002 14.3997 7.00019 15.7997 8.40019 16.5997Z" fill="#1BB20D"/>
<path d="M9.39999 19.5998C9.19999 18.7998 8.39999 18.3998 7.59999 18.5998C4.19999 19.5998 1.59999 22.3998 0.79999 25.5998C0.59999 26.3998 0.99999 27.1998 1.79999 27.3998C1.99999 27.3998 1.99999 27.3998 2.19999 27.3998C2.79999 27.3998 3.39999 26.9998 3.59999 26.1998C4.19999 23.7998 5.99999 21.9998 8.39999 21.1998C9.19999 21.1998 9.79999 20.3998 9.39999 19.5998Z" fill="#1BB20D"/>
</svg>
