<?xml version="1.0" encoding="UTF-8"?>
<svg id="Layer_2" data-name="Layer 2" xmlns="http://www.w3.org/2000/svg" viewBox="0 0 64 64">
  <defs>
    <style>
      .cls-1 {
        fill: #545454;
      }

      .cls-1, .cls-2 {
        stroke-width: 0px;
      }

      .cls-2 {
        fill: #878787;
      }
    </style>
  </defs>
  <g id="Layer_1-2" data-name="Layer 1">
    <g>
      <circle class="cls-1" cx="32" cy="32" r="32"/>
      <g>
        <path class="cls-2" d="M36.26,43.79c-.96-.44-1.54.18-2.69.36-1.57.25-3.36.35-4.94.21-.79-.07-1.56-.32-2.33-.43h-.21s0-.15-.29-.04c.1,2.87-.14,5.77,0,8.63.02.37,0,.74,0,1.11.5.71,1,1.41,1.5,2.11.75,1.05,0,.09,0,.14.21.17.12.18.14.21.15.26.25.27.18.64,2.04-.02,4.11-.06,6.12-.43.18-.03.39-.05.5-.07.41-.09,1.04-.28,1.43-.43.28-.1,1.11-.47,1.29-.64.05-.05.2-.07.21-.11,0-.37,0-.74,0-1.11.04-.99,0-8.64-.07-9.09-.07-.54-.37-.85-.86-1.07h.02Z"/>
        <path class="cls-2" d="M44.43,13.29c-.9-1.32-1.95-2.34-3.29-3.22-1-.65-2.06-1.19-3.22-1.5.03-.18-.79-.48-1.04-.57-3.56-1.3-9.1-.86-12.46.93-1.27.68-2.39,1.64-3.4,2.65-.41.41-.85.79-1.22,1.25-.99,1.26-2.69,4.4-2.51,5.98,0,.05,0,.08.07.07.03.01.12-.01.14,0,.14.08.29.21.43.29,2,1.03,3.96,2.07,5.76,3.44.81-.13,1.4.04,1.9-.57.98-1.19,1.61-4.22,5.91-3.58,1.53.23,2.64,1.15,3.19,2.58.41,1.07.48,1.72.36,2.86-.16,1.52-.89,2.93-1.79,4.15-1.87,2.56-6.25,6.12-7.09,10.85-.31,1.76-.38,2.21.93,2.76,1.01.42,1.55.36,2.58.43,2.08.13,4.12.06,6.19-.14-1.16-.95-.92-2.57-.47-3.83.88-2.42,4.54-5.4,6.37-7.34.24-.26.48-.53.72-.79,2.47-2.69,4.06-4.99,4.22-8.81.12-2.88-.67-5.5-2.29-7.88h0Z"/>
      </g>
    </g>
  </g>
</svg>