<svg width="40" height="40" viewBox="0 0 40 40" fill="none" xmlns="http://www.w3.org/2000/svg">
<path d="M16.2238 20.7694C20.9619 20.7694 24.9418 16.7895 24.9418 12.0515C24.9418 7.31344 20.9619 3.3335 16.2238 3.3335C11.4858 3.3335 7.50586 7.31344 7.50586 12.0515C7.50586 16.7895 11.2963 20.7694 16.2238 20.7694Z" fill="#DB8BFE"/>
<path d="M16.2239 23.4224C10.1592 23.4224 4.6631 26.8337 2.0098 32.3299C1.44124 33.2775 1.63076 34.6041 2.19932 35.5517C2.57836 36.4993 3.71549 37.0679 4.85262 37.0679H27.4056C28.5428 37.0679 29.6799 36.4993 30.2485 35.5517C30.817 34.6041 31.0065 33.2775 30.438 32.3299C27.7847 26.8337 22.2886 23.4224 16.2239 23.4224Z" fill="#DB8BFE"/>
<path d="M35.9345 18.1162H32.1441V14.3257C32.1441 13.5677 31.5755 12.8096 30.6279 12.8096C29.8699 12.8096 29.1118 13.3781 29.1118 14.3257V18.1162H25.3213C24.5633 18.1162 23.8052 18.6847 23.8052 19.6323C23.8052 20.5799 24.3737 21.1485 25.3213 21.1485H29.1118V24.9389C29.1118 25.697 29.6803 26.4551 30.6279 26.4551C31.386 26.4551 32.1441 25.8865 32.1441 24.9389V21.1485H35.9345C36.6926 21.1485 37.4507 20.5799 37.4507 19.6323C37.4507 18.6847 36.6926 18.1162 35.9345 18.1162Z" fill="#DB8BFE"/>
</svg>
