<svg width="64" height="64" viewBox="0 0 64 64" fill="none" xmlns="http://www.w3.org/2000/svg">
<g id="XRP (XRP)">
<path id="XRP (XRP)_2" d="M63.0354 39.741C58.7616 56.884 41.3985 67.3169 24.2534 63.042C7.11555 58.7681 -3.31736 41.4039 0.958353 24.2623C5.23031 7.11741 22.5934 -3.31628 39.7332 0.957549C56.877 5.23138 67.3093 22.5975 63.035 39.7413L63.0353 39.741H63.0354Z" fill="#23292F"/>
<path id="XRP (XRP)_3" d="M47.7344 13.3333H54.192L40.7533 26.6394C35.8866 31.4555 27.9961 31.4555 23.1259 26.6394L9.68201 13.3333H16.1448L26.3547 23.4411C29.45 26.4918 34.4213 26.4918 37.5167 23.4411L47.7344 13.3333Z" fill="white"/>
<path id="XRP (XRP)_4" d="M16.0619 50.3333H9.59998L23.1259 36.9453C27.9926 32.1292 35.8831 32.1292 40.7533 36.9453L54.2792 50.3333H47.8217L37.5245 40.1435C34.4292 37.0928 29.4579 37.0928 26.3625 40.1435L16.0619 50.3333Z" fill="white"/>
</g>
</svg>
