<svg width="841" height="815" viewBox="0 0 841 815" fill="none" xmlns="http://www.w3.org/2000/svg">
<g opacity="0.1">
<path d="M132.6 691.282L184.482 661.144L185.446 661.694L133.563 691.833L132.6 691.282Z" stroke="white" stroke-miterlimit="10"/>
<path d="M237.74 751.971L289.622 721.833L290.586 722.383L238.704 752.522L237.74 751.971Z" stroke="white" stroke-miterlimit="10"/>
<path d="M27.5967 630.592L79.4789 600.453L80.4422 601.004L28.56 631.142L27.5967 630.592Z" stroke="white" stroke-miterlimit="10"/>
<path d="M344.808 813.762L396.69 783.624L397.653 784.174L345.771 814.312L344.808 813.762Z" stroke="white" stroke-miterlimit="10"/>
<path d="M431.92 395.677L432.883 396.228L384.992 424.027L383.891 423.476L431.92 395.677Z" stroke="white" stroke-miterlimit="10"/>
<path d="M536.923 456.229L537.886 456.779L489.995 484.716L488.894 484.166L536.923 456.229Z" stroke="white" stroke-miterlimit="10"/>
<path d="M182.968 540.314L286.457 480.174L287.42 480.725L183.931 540.864L182.968 540.314Z" stroke="white" stroke-miterlimit="10"/>
<path d="M642.064 516.919L643.027 517.469L594.998 545.406L594.035 544.856L642.064 516.919Z" stroke="white" stroke-miterlimit="10"/>
<path d="M80.4424 599.903L182.005 540.864L182.968 541.415L81.4057 600.453L80.4424 599.903Z" stroke="white" stroke-miterlimit="10"/>
<path d="M287.971 601.004L391.46 540.864L392.423 541.415L288.934 601.554L287.971 601.004Z" stroke="white" stroke-miterlimit="10"/>
<path d="M749.132 578.709L750.095 579.259L702.204 607.196L701.24 606.646L749.132 578.709Z" stroke="white" stroke-miterlimit="10"/>
<path d="M751.333 635.683L750.37 636.234L701.24 607.747L700.139 607.196L594.035 545.956L593.072 545.406L488.895 485.266L487.931 484.716L383.892 424.576L382.928 424.026L343.432 401.181L344.395 400.631L383.892 423.476L384.992 424.026L488.895 484.165L489.996 484.716L594.035 544.855L594.999 545.406L701.24 606.646L702.204 607.196L751.333 635.683Z" stroke="white" stroke-miterlimit="10"/>
<path d="M185.445 660.593L287.008 601.555L287.971 602.105L186.409 661.144L185.445 660.593Z" stroke="white" stroke-miterlimit="10"/>
<path d="M393.112 661.694L496.601 601.555L497.564 602.105L394.075 662.245L393.112 661.694Z" stroke="white" stroke-miterlimit="10"/>
<path d="M604.631 662.795L700.139 607.197L701.24 607.748L605.595 663.346L604.631 662.795Z" stroke="white" stroke-miterlimit="10"/>
<path d="M654.862 691.694L653.899 692.382L604.631 663.895L603.668 663.344L497.564 602.104L496.601 601.554L392.423 541.414L391.46 540.864L287.42 480.724L286.457 480.174L246.823 457.329L247.786 456.779L287.42 479.624L288.384 480.174L392.423 540.313L393.387 540.864L497.564 601.003L498.527 601.554L604.631 662.794L605.595 663.344L654.862 691.694Z" stroke="white" stroke-miterlimit="10"/>
<path d="M290.585 721.283L392.148 662.245L393.111 662.795L291.549 721.834L290.585 721.283Z" stroke="white" stroke-miterlimit="10"/>
<path d="M500.179 723.485L603.668 663.345L604.631 663.896L501.142 724.035L500.179 723.485Z" stroke="white" stroke-miterlimit="10"/>
<path d="M550.41 752.522L549.447 753.072L500.179 724.585L499.216 724.035L393.112 662.795L392.148 662.244L287.971 602.105L287.008 601.554L182.968 541.415L182.005 540.864L142.371 518.02L143.334 517.469L182.968 540.314L183.931 540.864L287.971 601.004L288.934 601.554L393.112 661.694L394.075 662.244L500.179 723.484L501.142 724.035L550.41 752.522Z" stroke="white" stroke-miterlimit="10"/>
<path d="M397.653 783.074L499.215 724.035L500.179 724.586L398.616 783.624L397.653 783.074Z" stroke="white" stroke-miterlimit="10"/>
<path d="M447.884 811.973L446.921 812.661L397.653 784.174L396.69 783.623L290.586 722.383L289.623 721.832L185.445 661.693L184.482 661.143L80.4422 601.003L79.4789 600.453L39.8447 577.608L40.8081 577.058L80.4422 599.902L81.4056 600.453L185.445 660.592L186.409 661.143L290.586 721.282L291.549 721.832L397.653 783.073L398.617 783.623L447.884 811.973Z" stroke="white" stroke-miterlimit="10"/>
<path d="M287.421 479.624L382.928 424.026L383.892 424.576L288.384 480.174L287.421 479.624Z" stroke="white" stroke-miterlimit="10"/>
<path d="M392.424 540.314L487.931 484.716L488.895 485.267L393.387 540.865L392.424 540.314Z" stroke="white" stroke-miterlimit="10"/>
<path d="M497.564 601.004L593.072 545.406L594.035 545.957L498.528 601.555L497.564 601.004Z" stroke="white" stroke-miterlimit="10"/>
</g>
<path d="M448.572 576.645C416.782 557.516 364.212 556.966 331.183 575.407C298.017 593.848 297.054 624.261 328.706 643.39C360.358 662.519 413.066 663.07 446.095 644.629C479.261 626.326 480.362 595.774 448.572 576.645ZM435.085 634.032C408.387 648.895 365.863 648.482 340.266 633.069C314.669 617.656 315.495 593.022 342.193 578.159C368.891 563.296 411.415 563.709 437.012 579.122C462.609 594.536 461.783 619.169 435.085 634.032Z" fill="#74AE6E" stroke="#080708" stroke-miterlimit="10"/>
<path d="M437.012 573.755C434.948 572.517 432.883 571.416 430.544 570.315C406.048 559.03 370.955 559.03 346.321 570.59C344.807 571.278 343.431 571.966 342.055 572.792C315.357 587.655 314.394 612.288 340.128 627.702C365.725 643.115 408.25 643.528 434.948 628.665C461.783 613.802 462.609 589.168 437.012 573.755Z" fill="#74AE6E" stroke="#080708" stroke-miterlimit="10"/>
<path d="M378.248 562.47C361.184 563.709 344.532 568.113 331.045 575.544C309.439 587.654 301.595 604.719 307.512 620.545H326.229V615.178H388.707L378.248 562.47Z" fill="#080708"/>
<path d="M420.636 571.554C419.122 570.866 417.883 569.765 416.92 568.527C414.03 564.948 410.314 557.655 409.901 544.306L366.964 544.443C366.964 548.985 366.551 553.251 365.588 557.242C364.074 562.884 362.01 566.6 360.221 568.802C359.258 570.04 358.019 571.141 356.505 571.829C348.248 576.784 344.12 583.114 344.12 589.582C344.12 596.05 348.248 602.381 356.368 607.335C373.295 617.519 401.369 617.794 419.122 608.023C428.205 602.931 432.746 596.188 432.746 589.445C432.884 582.839 428.755 576.508 420.636 571.554Z" fill="#74AE6E" stroke="#080708" stroke-miterlimit="10"/>
<path d="M403.983 535.773C412.24 540.727 411.965 548.572 403.295 553.388C394.763 558.205 381.138 558.067 372.881 553.113C364.624 548.159 364.899 540.314 373.569 535.498C382.102 530.681 395.726 530.819 403.983 535.773Z" fill="#74AE6E" stroke="#080708" stroke-miterlimit="10"/>
<path d="M455.728 600.454C455.728 610.637 448.848 620.959 435.086 628.665C408.388 643.528 365.864 643.115 340.266 627.702C327.881 620.271 321.55 610.5 321.55 600.866V606.234C321.55 615.867 327.743 625.5 340.266 633.069C365.864 648.483 408.388 648.895 435.086 634.033C448.848 626.326 455.728 616.142 455.728 605.821V600.454Z" fill="#74AE6E" stroke="#080708" stroke-miterlimit="10"/>
<path d="M471.692 609.811C471.692 622.472 463.159 635.133 446.095 644.629C412.928 663.069 360.358 662.519 328.706 643.39C313.293 634.17 305.586 622.197 305.586 610.224V614.352C305.586 626.325 313.293 638.298 328.706 647.519C360.496 666.648 413.066 667.198 446.095 648.757C463.159 639.261 471.692 626.601 471.692 613.94V609.811Z" fill="#74AE6E" stroke="#080708" stroke-miterlimit="10"/>
<path d="M370.267 164.753V542.791C370.267 545.544 372.056 548.296 375.634 550.36C382.79 554.489 394.35 554.489 401.507 550.36C405.085 548.296 406.874 545.681 406.874 543.067V165.028C406.874 167.643 405.085 170.395 401.507 172.322C394.35 176.451 382.79 176.451 375.634 172.322C372.056 170.258 370.267 167.505 370.267 164.753Z" fill="#74AE6E" stroke="#080708" stroke-miterlimit="10"/>
<g clip-path="url(#clip0_25_16912)">
<path d="M370 437.8C370 437.8 336.1 453.6 351.4 502.3L372.3 520.9L370 437.8Z" fill="#96C320" stroke="#080708" stroke-miterlimit="10"/>
</g>
<path d="M579.172 1.12458C578.897 0.986957 578.484 0.986955 577.933 1.26219C577.796 1.39981 577.521 1.53743 577.383 1.67505C574.355 4.56504 571.19 6.90456 568.025 8.6936C562.795 11.7212 557.428 13.235 552.061 12.9598L556.19 15.2993C561.557 15.5745 566.924 14.1983 572.153 11.0331C575.319 9.24407 578.346 6.90456 581.511 4.01457C581.649 3.87695 581.924 3.73933 582.062 3.60171C582.612 3.32647 583.025 3.32647 583.3 3.46409L579.172 1.12458Z" fill="#74AE6E" stroke="#080708" stroke-miterlimit="10"/>
<path d="M402.882 103.651L398.754 101.312L552.061 12.8228L556.19 15.1623L402.882 103.651Z" fill="#74AE6E" stroke="#080708" stroke-miterlimit="10"/>
<path d="M403.02 123.743L398.891 121.266L398.754 101.311L402.882 103.651L403.02 123.743Z" fill="#74AE6E" stroke="#080708" stroke-miterlimit="10"/>
<path d="M582.062 3.60222C583.576 2.63888 584.539 4.56554 583.163 6.76744C578.759 13.3731 573.255 18.8779 567.475 22.3183L402.883 123.743V103.789L556.19 15.2998C561.557 15.575 566.924 14.1989 572.154 11.0336C575.319 9.24458 578.347 6.90506 581.512 4.01507C581.649 3.87745 581.925 3.73983 582.062 3.60222Z" fill="#74AE6E" stroke="#080708" stroke-miterlimit="10"/>
<path d="M388.57 109.293L361.322 93.4664L388.57 77.7778L415.956 93.4664L388.57 109.293Z" fill="#74AE6E" stroke="#080708" stroke-miterlimit="10"/>
<path d="M388.57 187.734L361.322 172.046V93.4653L388.57 109.291V187.734Z" fill="#74AE6E" stroke="#080708" stroke-miterlimit="10"/>
<path d="M377.698 110.806L369.854 106.265V168.193L377.698 172.734V110.806Z" fill="#60876B" stroke="#080708" stroke-miterlimit="10"/>
<path d="M415.956 172.046L388.57 187.734V109.291L415.956 93.4653V172.046Z" fill="#74AE6E" stroke="#080708" stroke-miterlimit="10"/>
<path d="M387.332 78.4663L361.322 93.4667L373.157 100.348H388.57L387.332 78.4663Z" fill="#080708"/>
<path d="M401.644 80.9442C400.543 75.577 398.204 68.6961 393.662 60.7142C393.387 60.3014 392.974 59.8885 392.424 59.6133C392.974 60.5766 393.387 61.5399 393.8 62.5033C393.525 63.0538 393.112 63.6042 392.286 64.0171C390.084 65.2556 386.781 65.118 384.717 63.8795C383.341 63.0538 382.928 61.8152 383.479 60.7142C373.57 78.0542 374.396 90.5775 374.671 92.917C374.946 94.706 376.185 96.4951 378.524 97.8713C383.891 101.036 392.699 101.174 398.341 98.0089C400.956 96.4951 402.332 94.706 402.608 92.6418C402.608 92.5041 402.608 92.2289 402.608 92.0913C402.883 90.027 402.883 86.1737 401.644 80.9442Z" fill="#74AE6E" stroke="#080708" stroke-miterlimit="10"/>
<path d="M396.689 52.3196C390.772 49.0167 384.304 50.1177 380.588 52.1819C379.9 52.5948 378.111 53.6957 377.01 55.4848C373.432 61.8153 382.515 68.1457 392.286 65.9438C400.405 64.1548 403.983 57.1362 396.689 52.3196Z" fill="#74AE6E" stroke="#080708" stroke-miterlimit="10"/>
<path d="M412.187 37.4753C414.336 24.2724 405.374 11.8277 392.171 9.6794C378.968 7.53108 366.524 16.4926 364.375 29.6955C362.227 42.8985 371.188 55.3431 384.391 57.4914C397.594 59.6398 410.039 50.6782 412.187 37.4753Z" fill="#74AE6E" stroke="#080708" stroke-miterlimit="10"/>
<path d="M224.391 206.726L220.263 204.387L377.698 113.421V118.238L224.391 206.726Z" fill="#74AE6E" stroke="#080708" stroke-miterlimit="10"/>
<path d="M220.263 204.387C214.895 210.855 209.666 215.534 204.299 218.561C201.134 220.35 198.106 221.589 194.941 222.277C194.803 222.277 194.528 222.415 194.39 222.552C192.876 223.378 192.051 226.13 193.152 226.819L197.28 229.158C196.179 228.47 197.005 225.718 198.519 224.892C198.656 224.754 198.932 224.754 199.069 224.617C202.234 223.929 205.262 222.69 208.427 220.901C213.657 217.873 219.024 213.194 224.391 206.726L220.263 204.387Z" fill="#74AE6E" stroke="#080708" stroke-miterlimit="10"/>
<path d="M208.428 220.901C213.657 217.873 219.024 213.194 224.391 206.726L377.699 118.237V138.192L213.107 226.818C207.327 229.984 201.822 230.809 197.418 229.296C196.042 228.883 197.005 225.855 198.519 224.892C198.657 224.754 198.932 224.754 199.07 224.617C202.235 223.928 205.4 222.69 208.428 220.901Z" fill="#74AE6E" stroke="#080708" stroke-miterlimit="10"/>
<path d="M572.98 331.822C640.016 331.822 694.359 300.46 694.359 261.774C694.359 223.088 640.016 191.726 572.98 191.726C505.944 191.726 451.6 223.088 451.6 261.774C451.6 300.46 505.944 331.822 572.98 331.822Z" fill="#DD93FD" stroke="#080708" stroke-miterlimit="10"/>
<path d="M572.98 329.344C637.584 329.344 689.956 299.092 689.956 261.773C689.956 224.455 637.584 194.203 572.98 194.203C508.376 194.203 456.004 224.455 456.004 261.773C456.004 299.092 508.376 329.344 572.98 329.344Z" fill="#DA85FF" stroke="#080708" stroke-miterlimit="10"/>
<path d="M490.271 226.956C535.96 200.533 609.999 200.533 655.689 226.956C675.643 238.516 686.928 253.241 689.405 268.241C692.57 248.837 681.423 228.883 655.689 214.02C609.999 187.597 535.96 187.597 490.271 214.02C464.536 228.883 453.389 248.837 456.554 268.241C459.032 253.103 470.179 238.516 490.271 226.956Z" fill="#CA53FE" stroke="#080708" stroke-miterlimit="10"/>
<path d="M694.359 261.086V276.912C694.635 295.078 682.799 313.243 658.854 327.143C611.375 354.529 534.584 354.529 487.106 327.143C463.711 313.656 451.875 295.903 451.6 278.288V262.324C451.875 280.077 463.711 297.692 487.106 311.179C534.584 338.565 611.375 338.565 658.854 311.179C682.799 297.417 694.635 279.252 694.359 261.086Z" fill="#C642FF" stroke="#080708" stroke-miterlimit="10"/>
<path d="M571.328 35.8043C568.713 35.8043 566.924 33.8776 566.924 30.85C566.924 26.8591 570.089 21.9048 573.942 19.5653C575.319 18.7396 576.557 18.4644 577.796 18.4644C580.41 18.4644 582.199 20.391 582.199 23.4186C582.199 27.4096 579.034 32.3638 575.181 34.7034C573.805 35.3915 572.429 35.8043 571.328 35.8043ZM577.796 20.8039C576.97 20.8039 576.144 21.0791 575.181 21.6296C572.016 23.5562 569.263 27.6848 569.263 30.85C569.263 31.8134 569.539 33.4648 571.328 33.4648C572.153 33.4648 572.979 33.1896 573.942 32.6391C577.108 30.7124 579.86 26.5839 579.86 23.4186C579.86 22.4553 579.585 20.8039 577.796 20.8039Z" fill="#C8EE61"/>
<path d="M454.077 259.297C453.939 259.297 453.802 259.297 453.664 259.159C453.389 259.022 453.251 258.471 453.526 258.196C456.141 254.205 457.105 250.765 457.93 247.599C458.206 246.498 458.068 245.948 458.068 245.81C458.068 245.81 457.517 246.086 456.692 247.187C456.416 247.462 456.004 247.599 455.728 247.324C455.453 247.049 455.316 246.636 455.591 246.361C456.829 244.709 457.793 244.159 458.618 244.572C459.169 244.847 459.719 245.673 459.306 247.875C458.618 251.177 457.517 254.756 454.765 258.884C454.49 259.159 454.215 259.297 454.077 259.297Z" fill="url(#paint0_linear_25_16912)" stroke="#080708" stroke-miterlimit="10"/>
<path d="M691.331 259.16C691.056 259.16 690.919 259.022 690.781 258.884C688.029 254.756 687.065 251.178 686.239 247.875C685.689 245.673 686.377 244.847 686.928 244.572C687.753 244.159 688.854 244.847 689.955 246.361C690.23 246.636 690.093 247.049 689.818 247.324C689.542 247.6 689.13 247.462 688.854 247.187C687.891 245.811 687.478 245.811 687.478 245.811C687.478 245.811 687.34 246.361 687.616 247.462C688.304 250.627 689.405 254.068 691.882 258.059C692.157 258.334 692.019 258.747 691.744 259.022C691.607 259.16 691.469 259.16 691.331 259.16Z" fill="url(#paint1_linear_25_16912)" stroke="#080708" stroke-miterlimit="10"/>
<path d="M567.199 330.858C566.787 330.858 566.511 330.446 566.511 330.17C566.649 328.656 566.098 327.143 564.998 326.042C564.034 324.941 562.52 324.253 561.007 324.115C557.841 323.977 555.089 326.317 554.951 329.482C554.951 329.895 554.676 330.17 554.263 330.17C553.85 330.17 553.575 329.757 553.575 329.482C553.85 325.629 557.153 322.601 561.007 322.739C562.933 322.877 564.585 323.702 565.961 325.078C567.199 326.455 567.888 328.381 567.75 330.17C567.75 330.583 567.475 330.858 567.199 330.858Z" fill="url(#paint2_linear_25_16912)" stroke="#080708" stroke-miterlimit="10"/>
<path d="M572.016 7.17956C570.64 6.35385 569.401 6.07861 568.163 6.07861C565.548 6.07861 563.896 8.00528 563.759 10.7577C564.585 10.3448 565.41 9.93194 566.236 9.51908C566.511 8.83099 567.062 8.28051 568.025 8.28051C568.851 8.28051 569.676 8.55575 570.64 9.10623C573.805 11.0329 576.557 15.1614 576.557 18.3267C576.557 19.29 576.282 20.9414 574.493 20.9414C573.667 20.9414 572.842 20.6662 571.878 20.1157C571.603 19.9781 571.465 19.7029 571.19 19.5652C570.502 20.1157 569.814 20.5286 569.126 20.9414C569.676 21.3543 570.089 21.7671 570.64 22.0424C572.016 22.8681 573.255 23.1433 574.493 23.1433C577.108 23.1433 578.897 21.2167 578.897 18.1891C579.034 14.3357 576.007 9.38146 572.016 7.17956Z" fill="#C8EE61"/>
<path d="M211.455 540.452C278.491 540.452 332.835 509.09 332.835 470.404C332.835 431.718 278.491 400.356 211.455 400.356C144.419 400.356 90.0752 431.718 90.0752 470.404C90.0752 509.09 144.419 540.452 211.455 540.452Z" fill="#E6ADFE" stroke="#080708" stroke-miterlimit="10"/>
<path d="M212.006 538.112C276.61 538.112 328.982 507.86 328.982 470.541C328.982 433.223 276.61 402.971 212.006 402.971C147.402 402.971 95.0298 433.223 95.0298 470.541C95.0298 507.86 147.402 538.112 212.006 538.112Z" fill="#DA85FF" stroke="#080708" stroke-miterlimit="10"/>
<path d="M128.746 435.586C174.435 409.163 248.474 409.163 294.164 435.586C314.118 447.146 325.403 461.871 327.88 476.871C331.046 457.467 319.898 437.512 294.164 422.65C248.474 396.227 174.435 396.227 128.746 422.65C103.011 437.512 91.8643 457.467 95.0295 476.871C97.5066 461.871 108.791 447.146 128.746 435.586Z" fill="#CA53FE" stroke="#080708" stroke-miterlimit="10"/>
<path d="M332.835 469.854V485.68C333.11 503.845 321.275 522.011 297.329 535.91C249.85 563.297 173.059 563.297 125.581 535.91C102.186 522.424 90.3504 504.671 90.0752 487.056V471.23C90.3504 488.983 102.186 506.598 125.581 520.084C173.059 547.47 249.85 547.47 297.329 520.084C321.275 506.185 333.11 488.019 332.835 469.854Z" fill="#C642FF" stroke="#080708" stroke-miterlimit="10"/>
<path d="M209.804 244.572C207.189 244.572 205.4 242.646 205.4 239.618C205.4 235.627 208.565 230.673 212.418 228.333C213.795 227.508 215.033 227.232 216.272 227.232C218.887 227.232 220.676 229.159 220.676 232.187C220.676 236.178 217.51 241.132 213.657 243.471C212.281 244.16 210.905 244.572 209.804 244.572ZM216.272 229.434C215.446 229.434 214.62 229.71 213.657 230.26C210.492 232.187 207.739 236.315 207.739 239.48C207.739 240.444 208.015 242.095 209.804 242.095C210.629 242.095 211.455 241.82 212.418 241.27C215.584 239.343 218.336 235.214 218.336 232.049C218.336 231.086 218.061 229.434 216.272 229.434Z" fill="#C8EE61"/>
<path d="M92.5525 468.065C92.4149 468.065 92.2773 468.065 92.1397 467.927C91.8645 467.79 91.7268 467.239 92.0021 466.964C94.6168 462.973 95.5802 459.533 96.4059 456.368C96.6811 455.267 96.5435 454.716 96.5435 454.578C96.5435 454.578 95.993 454.854 95.1673 455.955C94.8921 456.23 94.4792 456.367 94.204 456.092C93.9287 455.817 93.7911 455.404 94.0664 455.129C95.3049 453.478 96.2683 452.927 97.094 453.34C97.6444 453.615 98.1949 454.441 97.7821 456.643C97.094 459.946 95.993 463.524 93.2406 467.652C92.9654 467.927 92.6902 468.065 92.5525 468.065Z" fill="url(#paint3_linear_25_16912)" stroke="#080708" stroke-miterlimit="10"/>
<path d="M329.807 467.927C329.532 467.927 329.394 467.79 329.257 467.652C326.504 463.523 325.541 459.945 324.715 456.643C324.165 454.441 324.853 453.615 325.403 453.34C326.229 452.927 327.33 453.615 328.431 455.129C328.706 455.404 328.568 455.817 328.293 456.092C328.018 456.367 327.605 456.23 327.33 455.954C326.366 454.578 325.954 454.578 325.954 454.578C325.954 454.578 325.816 455.129 326.091 456.23C326.779 459.395 327.88 462.835 330.357 466.826C330.633 467.102 330.495 467.514 330.22 467.79C330.082 467.79 329.945 467.927 329.807 467.927Z" fill="url(#paint4_linear_25_16912)" stroke="#080708" stroke-miterlimit="10"/>
<path d="M205.675 539.626C205.262 539.626 204.987 539.214 204.987 538.938C205.125 537.425 204.574 535.911 203.473 534.81C202.51 533.709 200.996 533.021 199.482 532.883C196.317 532.746 193.565 535.085 193.427 538.25C193.427 538.663 193.152 538.938 192.739 538.938C192.326 538.938 192.051 538.525 192.051 538.25C192.326 534.397 195.629 531.369 199.482 531.507C201.409 531.645 203.06 532.47 204.436 533.846C205.675 535.223 206.363 537.149 206.225 538.938C206.363 539.351 205.95 539.626 205.675 539.626Z" fill="url(#paint5_linear_25_16912)" stroke="#080708" stroke-miterlimit="10"/>
<path d="M210.492 215.81C209.116 214.984 207.877 214.709 206.639 214.709C204.024 214.709 202.235 216.636 202.235 219.663C202.923 219.388 203.611 219.113 204.299 218.7C204.437 218.562 204.574 218.562 204.712 218.425C204.987 217.737 205.4 217.049 206.639 217.049C207.464 217.049 208.29 217.324 209.253 217.874C212.419 219.801 215.171 223.929 215.171 227.095C215.171 228.058 214.896 229.709 213.107 229.709C212.281 229.709 211.455 229.434 210.492 228.884C210.217 228.746 210.079 228.471 209.804 228.333C208.841 228.746 208.015 229.021 207.189 229.159C207.877 229.709 208.565 230.398 209.391 230.81C210.767 231.636 212.006 231.911 213.244 231.911C215.859 231.911 217.648 229.985 217.648 226.957C217.511 223.104 214.483 218.149 210.492 215.81Z" fill="#C8EE61"/>
<path d="M96.2686 456.367L213.107 242.646L326.092 456.23" stroke="#C8EE61" stroke-miterlimit="10"/>
<path d="M249.851 461.459C244.208 480.037 224.942 500.129 191.913 500.129C158.885 500.129 132.324 485.267 132.324 466.826C132.324 448.522 159.022 433.522 191.913 433.522C224.804 433.522 255.218 443.981 249.851 461.459Z" fill="#080708"/>
<path d="M457.38 247.187L574.08 33.4653L687.203 247.049" stroke="#C8EE61" stroke-miterlimit="10"/>
<path d="M612.614 251.452C606.971 270.031 587.705 290.123 554.676 290.123C521.648 290.123 495.087 275.26 495.087 256.819C495.087 238.378 521.785 223.516 554.676 223.516C587.567 223.516 617.981 233.837 612.614 251.452Z" fill="#080708"/>
<path d="M189.986 491.46C183.931 488.57 179.252 482.653 177.188 473.57C176.362 470.955 176.224 468.203 175.812 465.726C173.747 439.303 189.711 404.898 210.904 389.072C221.776 381.228 231.134 379.301 240.079 383.292L250.401 388.109L251.227 388.659L249.438 392.513C251.915 396.641 253.566 402.283 254.117 409.027C256.869 435.725 240.905 470.267 219.024 485.68C213.657 489.671 208.152 492.011 203.335 492.974L201.546 496.827L198.381 495.314L191.363 492.011L189.986 491.46Z" fill="#96C320" stroke="#080708" stroke-miterlimit="10"/>
<path d="M177.188 473.157L189.161 478.111L188.748 476.047L198.656 494.488L198.794 494.763L199.482 495.451L191.363 491.46L189.987 490.772C183.794 488.295 179.252 483.341 177.188 473.157Z" fill="#080708" stroke="#080708" stroke-miterlimit="10"/>
<path d="M188.06 456.78L176.225 452.101C176.225 451.963 175.537 456.918 175.812 464.487L187.923 469.303L188.06 456.78Z" fill="#080708" stroke="#080708" stroke-miterlimit="10"/>
<path d="M187.509 471.092C189.574 497.515 208.978 506.46 230.722 491.047C252.603 475.634 268.292 440.954 265.814 414.394C263.337 387.833 243.795 378.75 222.602 394.439C201.409 410.265 185.445 444.67 187.509 471.092Z" fill="#C2E95A" stroke="#080708" stroke-miterlimit="10"/>
<path d="M252.878 413.843L240.355 435.312C238.153 439.165 235.125 442.193 232.098 443.982C229.07 445.633 226.18 446.184 223.841 444.807L211.317 437.789L217.373 434.348L226.868 439.716C228.382 440.541 230.171 440.266 232.098 439.165C234.024 438.064 235.813 436.137 237.327 433.66L246.823 417.284L252.878 413.843Z" fill="#080708" stroke="#080708" stroke-miterlimit="10"/>
<path d="M232.235 447.285C235.263 445.633 238.153 445.083 240.493 446.459L253.153 453.478L247.098 456.918L237.465 451.551C235.951 450.725 234.162 451.001 232.235 452.102C230.309 453.203 228.52 455.129 227.006 457.606L217.373 474.121L211.317 477.561L223.841 455.955C226.318 451.964 229.208 448.936 232.235 447.285Z" fill="#080708" stroke="#080708" stroke-miterlimit="10"/>
<path d="M199.62 534.948L212.969 242.233" stroke="#C8EE61" stroke-miterlimit="10"/>
<path d="M550.41 280.766C544.355 277.876 539.676 271.958 537.612 262.875C536.786 260.26 536.648 257.508 536.235 255.031C534.171 228.608 550.135 194.203 571.328 178.377C582.2 170.533 591.558 168.606 600.503 172.597L610.825 177.414L611.65 177.964L609.861 181.818C612.339 185.946 613.99 191.589 614.54 198.332C617.293 225.03 601.329 259.572 579.448 274.986C574.081 278.977 568.576 281.316 563.759 282.279L561.97 286.133L558.805 284.619L551.786 281.316L550.41 280.766Z" fill="#95C991" stroke="#080708" stroke-miterlimit="10"/>
<path d="M537.474 262.462L549.447 267.417L549.034 265.352L558.943 283.793L559.08 284.069L559.768 284.757L551.649 280.766L550.273 280.078C544.217 277.6 539.676 272.646 537.474 262.462Z" fill="#080708" stroke="#080708" stroke-miterlimit="10"/>
<path d="M548.483 246.086L536.648 241.407C536.648 241.269 535.96 246.224 536.235 253.793L548.346 258.609L548.483 246.086Z" fill="#080708" stroke="#080708" stroke-miterlimit="10"/>
<path d="M547.933 260.398C549.997 286.821 569.401 295.766 591.145 280.353C613.026 264.94 628.715 230.26 626.238 203.699C623.761 177.139 604.219 168.056 583.025 183.745C561.832 199.433 545.868 233.975 547.933 260.398Z" fill="url(#paint6_linear_25_16912)" stroke="#080708" stroke-miterlimit="10"/>
<path d="M703.304 554.076C705.093 557.241 705.368 561.37 703.442 565.911C703.029 567.287 702.203 568.526 701.653 569.764C694.496 582.15 676.744 592.471 662.431 593.022C655.275 593.16 650.458 591.095 647.706 586.692L644.541 581.462L644.266 580.912L646.192 579.673C646.33 577.058 647.293 574.031 649.22 570.865C656.238 558.204 673.991 547.745 688.441 547.608C692.019 547.47 695.185 548.158 697.662 549.259L699.588 548.021L700.552 549.672L702.754 553.25L703.304 554.076Z" fill="url(#paint7_linear_25_16912)" stroke="#080708" stroke-miterlimit="10"/>
<path d="M703.304 566.049L699.45 560.131L699.038 561.232L700.276 549.947V549.81L700.139 549.259L702.478 553.525L702.891 554.214C705.093 557.379 705.506 560.957 703.304 566.049Z" fill="#080708" stroke="#080708" stroke-miterlimit="10"/>
<path d="M693.533 570.039L697.386 575.819C697.386 575.819 699.175 573.893 701.377 570.452L697.524 564.535L693.533 570.039Z" fill="#080708" stroke="#080708" stroke-miterlimit="10"/>
<path d="M698.074 563.847C705.231 551.461 699.451 541.553 685.001 541.69C670.551 541.828 652.798 552.425 645.779 564.948C638.761 577.471 644.678 587.517 658.853 587.105C673.028 586.692 690.918 576.233 698.074 563.847Z" fill="url(#paint8_linear_25_16912)" stroke="#080708" stroke-miterlimit="10"/>
<path d="M560.593 325.767L574.08 33.0518" stroke="#C8EE61" stroke-miterlimit="10"/>
<path d="M100.397 270.444L96.5435 233.287L120.627 270.444H100.397Z" fill="#86AD1E" stroke="#080708" stroke-miterlimit="10"/>
<path d="M129.985 252.141L120.627 270.444L96.5435 233.287L129.985 252.141Z" fill="#C2E95A" stroke="#080708" stroke-miterlimit="10"/>
<path d="M762.953 250.992L749.861 258.595L757.464 271.686L770.555 264.084L762.953 250.992Z" fill="#E5AEFD" stroke="#080708" stroke-miterlimit="10"/>
<path d="M749.819 258.609L753.81 250.628L765.783 243.747L762.893 250.903L749.819 258.609Z" fill="white" stroke="#080708" stroke-miterlimit="10"/>
<path d="M770.462 264.114L773.077 255.719L765.783 243.747L762.893 250.903L770.462 264.114Z" fill="#96C320" stroke="#080708" stroke-miterlimit="10"/>
<path d="M406.874 400.356C488.619 375.998 529.079 396.503 461.508 444.394C363.249 513.892 318.798 539.627 344.945 570.178C382.24 613.528 835.556 502.469 839.96 381.365C843.262 291.5 643.715 351.364 643.715 351.364" stroke="#B4CE53" stroke-miterlimit="10"/>
<path d="M32.4132 516.506C32.4132 516.506 -24.1481 580.086 14.5227 592.059C53.1936 604.032 113.746 563.71 267.603 463.248C303.66 439.715 338.477 422.375 369.166 410.402" stroke="#B4CE53" stroke-miterlimit="10"/>
<g clip-path="url(#clip1_25_16912)">
<path d="M404.672 504.248C431.192 489.387 456.72 466.599 453.126 421.396C453.126 421.396 442.841 379.66 407.15 370.619L406.902 402.324C406.902 402.324 426.73 414.337 422.889 438.239C419.047 462.141 412.355 469.2 394.634 476.755C394.634 476.755 360.183 491.368 347.419 510.688C336.017 528.027 339.859 573.973 380.011 583.633C406.902 590.073 420.534 578.184 426.607 566.79C432.307 556.016 433.175 540.659 425.739 531.123C421.154 525.178 415.329 520 406.902 520V551.929C406.902 551.929 380.383 565.924 371.088 541.65C362.909 520.968 404.672 504.248 404.672 504.248Z" fill="#96C320" stroke="#080708" stroke-miterlimit="10" stroke-linecap="round" stroke-linejoin="round"/>
<path d="M352.995 532.237C352.623 533.847 350.392 537.934 348.781 537.563C347.17 537.191 346.923 532.609 347.17 530.999" stroke="#566A38" stroke-miterlimit="10" stroke-linecap="round" stroke-linejoin="round"/>
<path d="M358.696 533.847C358.324 535.457 356.093 539.544 354.482 539.173C352.871 538.801 352.623 534.219 352.871 532.609" stroke="#566A38" stroke-miterlimit="10" stroke-linecap="round" stroke-linejoin="round"/>
<path d="M389.305 568.4C390.916 568.648 395.13 570.753 394.758 572.363C394.51 573.973 389.801 574.469 388.19 574.221" stroke="#566A38" stroke-miterlimit="10" stroke-linecap="round" stroke-linejoin="round"/>
<path d="M390.916 562.827C392.527 563.075 396.741 565.18 396.369 566.79C396.121 568.4 391.412 568.896 389.801 568.648" stroke="#566A38" stroke-miterlimit="10" stroke-linecap="round" stroke-linejoin="round"/>
<path d="M384.1 564.561C385.711 564.809 389.925 566.914 389.553 568.524C389.305 570.134 384.596 570.629 382.985 570.382" stroke="#566A38" stroke-miterlimit="10" stroke-linecap="round" stroke-linejoin="round"/>
<path d="M398.228 489.759C396.864 490.626 392.279 491.617 391.412 490.254C390.544 488.892 393.89 485.424 395.253 484.681" stroke="#566A38" stroke-miterlimit="10" stroke-linecap="round" stroke-linejoin="round"/>
<path d="M394.138 496.075C392.775 496.942 388.19 497.932 387.322 496.57C386.455 495.208 389.801 491.74 391.164 490.997" stroke="#566A38" stroke-miterlimit="10" stroke-linecap="round" stroke-linejoin="round"/>
<path d="M395.625 483.566C394.262 484.433 389.677 485.424 388.81 484.062C387.942 482.7 391.288 479.232 392.651 478.489" stroke="#566A38" stroke-miterlimit="10" stroke-linecap="round" stroke-linejoin="round"/>
<path d="M402.565 483.814C401.202 484.681 396.617 485.672 395.749 484.309C394.882 482.947 398.228 479.479 399.591 478.736" stroke="#566A38" stroke-miterlimit="10" stroke-linecap="round" stroke-linejoin="round"/>
<path d="M556.48 479.232C556.48 479.232 579.902 503.877 568.501 522.701C557.1 541.402 540.122 534.343 533.182 554.777C528.969 567.038 538.015 577.936 543.096 588.339C544.583 591.436 546.318 594.779 546.566 598.371C546.814 601.096 546.194 604.316 545.327 606.916C543.84 611.746 541.361 616.205 538.015 620.044C531.2 627.846 521.533 632.924 511.372 634.905C501.086 636.887 495.013 634.41 485.843 629.209C484.604 628.465 483.365 627.722 482.249 626.855C456.597 608.031 455.729 586.482 482.125 535.581C490.056 520.348 492.535 507.84 494.89 495.579C495.881 490.502 496.501 485.424 496.501 480.47C496.748 459.169 487.206 440.344 470.228 427.836C440.61 406.039 406.903 420 406.903 420V450.252C407.151 450.128 407.399 450.004 407.646 450.004C416.321 446.289 432.06 447.527 432.06 447.527C465.148 454.339 468.246 479.355 463.165 500.533C462.049 504.868 460.562 509.574 458.703 514.404C451.64 532.857 440.363 553.787 434.786 570.134C431.44 580.042 430.572 590.94 431.068 601.343C431.44 607.907 432.431 614.347 434.29 620.539C435.282 623.759 436.397 626.855 437.76 629.828C444.204 644.813 461.554 656.331 476.92 661.037C511.991 671.935 547.062 656.455 560.074 631.314C566.642 619.301 570.236 601.715 558.835 579.546C558.835 579.546 551.523 570.877 553.258 561.217C555.117 550.69 571.971 549.204 579.158 533.6C586.346 517.995 583.496 492.978 556.48 479.232Z" fill="#96C320" stroke="#080708" stroke-miterlimit="10"/>
<path d="M459.447 512.794C459.199 513.289 458.951 513.661 458.579 514.032C460.438 509.202 461.925 504.496 463.041 500.161C468.246 478.984 461.5 453.5 430.5 448.5C430.5 448.5 415.949 445.793 407.274 449.509C406.655 445.917 406.903 445.793 407.522 443.069C407.522 443.069 436.314 438.496 452.5 451.5C471.461 466.733 468.493 495.208 459.447 512.794Z" fill="#DCBBD5" stroke="#080708" stroke-miterlimit="10"/>
<path d="M460.81 630.942C461.925 632.181 463.784 636.392 462.545 637.506C461.306 638.621 457.34 636.02 456.349 634.782" stroke="#566A38" stroke-miterlimit="10" stroke-linecap="round" stroke-linejoin="round"/>
<path d="M465.519 627.722C466.635 628.961 468.494 633.171 467.254 634.286C466.015 635.401 462.05 632.8 461.058 631.561" stroke="#566A38" stroke-miterlimit="10" stroke-linecap="round" stroke-linejoin="round"/>
<path d="M459.199 624.75C460.314 625.988 462.173 630.199 460.934 631.314C459.695 632.428 455.729 629.828 454.738 628.589" stroke="#566A38" stroke-miterlimit="10" stroke-linecap="round" stroke-linejoin="round"/>
<path d="M545.575 625.989C546.443 625.122 549.541 623.388 550.408 624.255C551.276 625.122 549.665 628.218 548.797 629.085" stroke="#566A38" stroke-miterlimit="10" stroke-linecap="round" stroke-linejoin="round"/>
<path d="M542.849 622.521C543.716 621.654 546.814 619.92 547.682 620.787C548.549 621.654 546.938 624.75 546.071 625.617" stroke="#566A38" stroke-miterlimit="10" stroke-linecap="round" stroke-linejoin="round"/>
<path d="M540.99 627.599C541.857 626.732 544.955 624.998 545.823 625.865C546.69 626.732 545.079 629.828 544.212 630.695" stroke="#566A38" stroke-miterlimit="10" stroke-linecap="round" stroke-linejoin="round"/>
<path d="M541.113 551.681C541.733 550.691 544.459 548.338 545.451 548.957C546.442 549.576 545.451 553.044 544.831 554.034" stroke="#566A38" stroke-miterlimit="10" stroke-linecap="round" stroke-linejoin="round"/>
<path d="M537.644 548.957C538.263 547.966 540.99 545.613 541.981 546.232C542.972 546.851 541.981 550.319 541.361 551.31" stroke="#566A38" stroke-miterlimit="10" stroke-linecap="round" stroke-linejoin="round"/>
<path d="M536.9 554.282C537.52 553.291 540.246 550.938 541.237 551.557C542.229 552.177 541.237 555.644 540.618 556.635" stroke="#566A38" stroke-miterlimit="10" stroke-linecap="round" stroke-linejoin="round"/>
<path d="M438.875 579.051C438.38 580.661 435.777 584.5 434.29 584.005C432.679 583.51 432.803 578.804 433.299 577.317" stroke="#566A38" stroke-miterlimit="10" stroke-linecap="round" stroke-linejoin="round"/>
<path d="M444.08 581.404C443.585 583.014 440.982 586.853 439.495 586.358C437.884 585.863 438.008 581.157 438.504 579.67" stroke="#566A38" stroke-miterlimit="10" stroke-linecap="round" stroke-linejoin="round"/>
<path d="M443.213 574.345C442.717 575.955 440.115 579.794 438.628 579.299C437.016 578.804 437.14 574.097 437.636 572.611" stroke="#566A38" stroke-miterlimit="10" stroke-linecap="round" stroke-linejoin="round"/>
<path d="M432.679 419.91C434.29 420.281 438.38 422.51 438.008 424.12C437.636 425.73 433.051 425.978 431.44 425.607" stroke="#566A38" stroke-miterlimit="10"/>
<path d="M439.991 418.052C441.602 418.423 445.691 420.653 445.319 422.263C444.948 423.872 440.362 424.12 438.751 423.749" stroke="#566A38" stroke-miterlimit="10"/>
<path d="M430.325 426.226C431.936 426.597 436.025 428.826 435.653 430.436C435.282 432.046 430.696 432.294 429.085 431.922" stroke="#566A38" stroke-miterlimit="10"/>
<path d="M425.492 421.396C427.103 421.767 431.192 423.996 430.82 425.606C430.449 427.216 425.863 427.464 424.252 427.092" stroke="#566A38" stroke-miterlimit="10"/>
<path d="M472.955 475.269C472.955 476.879 471.592 481.337 469.981 481.337C468.37 481.337 467.006 476.879 467.006 475.269" stroke="#566A38" stroke-miterlimit="10" stroke-linecap="round" stroke-linejoin="round"/>
<path d="M478.903 475.269C478.903 476.879 477.54 481.337 475.929 481.337C474.318 481.337 472.955 476.879 472.955 475.269" stroke="#566A38" stroke-miterlimit="10" stroke-linecap="round" stroke-linejoin="round"/>
<path d="M484.975 475.269C484.975 476.879 483.612 481.337 482.001 481.337C480.39 481.337 479.027 476.879 479.027 475.269" stroke="#566A38" stroke-miterlimit="10" stroke-linecap="round" stroke-linejoin="round"/>
<path d="M490.924 475.269C490.924 476.879 489.561 481.337 487.95 481.337C486.339 481.337 484.976 476.879 484.976 475.269" stroke="#566A38" stroke-miterlimit="10" stroke-linecap="round" stroke-linejoin="round"/>
<path d="M476.3 480.841C476.3 482.451 474.937 486.91 473.326 486.91C471.715 486.91 470.352 482.451 470.352 480.841" stroke="#566A38" stroke-miterlimit="10" stroke-linecap="round" stroke-linejoin="round"/>
<path d="M482.249 480.841C482.249 482.451 480.886 486.91 479.275 486.91C477.664 486.91 476.301 482.451 476.301 480.841" stroke="#566A38" stroke-miterlimit="10" stroke-linecap="round" stroke-linejoin="round"/>
<path d="M488.197 480.841C488.197 482.451 486.834 486.91 485.223 486.91C483.612 486.91 482.249 482.451 482.249 480.841" stroke="#566A38" stroke-miterlimit="10" stroke-linecap="round" stroke-linejoin="round"/>
<path d="M494.146 480.841C494.146 482.451 492.782 486.91 491.171 486.91C489.56 486.91 488.197 482.451 488.197 480.841" stroke="#566A38" stroke-miterlimit="10" stroke-linecap="round" stroke-linejoin="round"/>
<path d="M481.133 504.62C481.133 506.23 479.77 510.688 478.159 510.688C476.548 510.688 475.185 506.23 475.185 504.62" stroke="#566A38" stroke-miterlimit="10" stroke-linecap="round" stroke-linejoin="round"/>
<path d="M484.48 511.308C484.48 512.918 483.116 517.376 481.505 517.376C479.894 517.376 478.531 512.918 478.531 511.308" stroke="#566A38" stroke-miterlimit="10" stroke-linecap="round" stroke-linejoin="round"/>
<path d="M474.318 503.753C474.318 505.363 472.955 509.821 471.344 509.821C469.733 509.821 468.37 505.363 468.37 503.753" stroke="#566A38" stroke-miterlimit="10" stroke-linecap="round" stroke-linejoin="round"/>
<path d="M478.036 497.932C478.036 499.542 476.673 504.001 475.062 504.001C473.451 504.001 472.087 499.542 472.087 497.932" stroke="#566A38" stroke-miterlimit="10" stroke-linecap="round" stroke-linejoin="round"/>
<path d="M469.857 443.068C470.972 444.183 473.202 448.394 472.087 449.508C470.972 450.623 466.882 448.394 465.643 447.279" stroke="#566A38" stroke-miterlimit="10" stroke-linecap="round" stroke-linejoin="round"/>
<path d="M474.194 439.105C475.309 440.22 477.54 444.431 476.425 445.545C475.309 446.66 471.22 444.431 469.98 443.316" stroke="#566A38" stroke-miterlimit="10" stroke-linecap="round" stroke-linejoin="round"/>
<path d="M482.125 469.2C482.125 470.81 480.762 475.268 479.151 475.268C477.54 475.268 476.177 470.81 476.177 469.2" stroke="#566A38" stroke-miterlimit="10" stroke-linecap="round" stroke-linejoin="round"/>
</g>
<g clip-path="url(#clip2_25_16912)">
<path d="M370.168 370.595C370.168 370.595 324.978 374.283 311.065 402.358C311.065 402.358 303.335 411.994 307.259 429.125C307.259 429.125 302.146 445.066 309.757 452.799C309.757 452.799 308.805 471.476 326.643 470.405C344.481 469.334 341.865 450.776 341.865 450.776C341.865 450.776 347.573 438.047 342.341 426.389C342.341 426.389 336.157 406.76 370.405 403.31L370.168 370.595Z" fill="#96C320" stroke="#080708" stroke-miterlimit="10" stroke-linecap="round" stroke-linejoin="round"/>
<path d="M314.989 447.921V455.654C314.989 455.654 308.924 452.561 309.519 448.278C309.995 443.876 314.87 444.709 314.989 447.921Z" fill="#080708"/>
<path d="M337.227 447.921V455.654C337.227 455.654 343.292 452.561 342.697 448.278C342.222 443.876 337.346 444.709 337.227 447.921Z" fill="#080708"/>
<path d="M329.022 422.106L324.265 437.333L319.865 422.701" stroke="#566A38" stroke-miterlimit="10" stroke-linecap="round" stroke-linejoin="round"/>
<path d="M347.573 392.246C348.881 391.413 353.162 389.986 353.995 391.295C354.827 392.603 351.973 396.053 350.665 396.886" stroke="#566A38" stroke-miterlimit="10" stroke-linecap="round" stroke-linejoin="round"/>
<path d="M351.141 385.941C352.449 385.108 356.73 383.681 357.562 384.989C358.395 386.298 355.541 389.748 354.233 390.581" stroke="#566A38" stroke-miterlimit="10" stroke-linecap="round" stroke-linejoin="round"/>
<path d="M350.427 397.956C351.735 397.123 356.016 395.696 356.849 397.004C357.681 398.313 354.827 401.763 353.519 402.596" stroke="#566A38" stroke-miterlimit="10" stroke-linecap="round" stroke-linejoin="round"/>
<path d="M343.887 398.194C345.195 397.362 349.476 395.934 350.308 397.243C351.141 398.551 348.287 402.001 346.979 402.834" stroke="#566A38" stroke-miterlimit="10" stroke-linecap="round" stroke-linejoin="round"/>
</g>
<defs>
<linearGradient id="paint0_linear_25_16912" x1="453.343" y1="251.986" x2="459.317" y2="251.986" gradientUnits="userSpaceOnUse">
<stop stop-color="#E2745B"/>
<stop offset="0.3046" stop-color="#DB654C"/>
<stop offset="0.7501" stop-color="#D4523C"/>
<stop offset="1" stop-color="#D24B37"/>
</linearGradient>
<linearGradient id="paint1_linear_25_16912" x1="686.072" y1="251.824" x2="692.046" y2="251.824" gradientUnits="userSpaceOnUse">
<stop stop-color="#E2745B"/>
<stop offset="0.3046" stop-color="#DB654C"/>
<stop offset="0.7501" stop-color="#D4523C"/>
<stop offset="1" stop-color="#D24B37"/>
</linearGradient>
<linearGradient id="paint2_linear_25_16912" x1="553.649" y1="326.801" x2="567.843" y2="326.801" gradientUnits="userSpaceOnUse">
<stop stop-color="#E2745B"/>
<stop offset="0.3046" stop-color="#DB654C"/>
<stop offset="0.7501" stop-color="#D4523C"/>
<stop offset="1" stop-color="#D24B37"/>
</linearGradient>
<linearGradient id="paint3_linear_25_16912" x1="91.8393" y1="460.701" x2="97.8139" y2="460.701" gradientUnits="userSpaceOnUse">
<stop stop-color="#E2745B"/>
<stop offset="0.3046" stop-color="#DB654C"/>
<stop offset="0.7501" stop-color="#D4523C"/>
<stop offset="1" stop-color="#D24B37"/>
</linearGradient>
<linearGradient id="paint4_linear_25_16912" x1="324.569" y1="460.538" x2="330.543" y2="460.538" gradientUnits="userSpaceOnUse">
<stop stop-color="#E2745B"/>
<stop offset="0.3046" stop-color="#DB654C"/>
<stop offset="0.7501" stop-color="#D4523C"/>
<stop offset="1" stop-color="#D24B37"/>
</linearGradient>
<linearGradient id="paint5_linear_25_16912" x1="192.146" y1="535.515" x2="206.34" y2="535.515" gradientUnits="userSpaceOnUse">
<stop stop-color="#E2745B"/>
<stop offset="0.3046" stop-color="#DB654C"/>
<stop offset="0.7501" stop-color="#D4523C"/>
<stop offset="1" stop-color="#D24B37"/>
</linearGradient>
<linearGradient id="paint6_linear_25_16912" x1="626" y1="197.5" x2="559" y2="274.5" gradientUnits="userSpaceOnUse">
<stop stop-color="#F4FBE1"/>
<stop offset="1" stop-color="#6CBC64"/>
</linearGradient>
<linearGradient id="paint7_linear_25_16912" x1="663.064" y1="578.047" x2="699.22" y2="555.512" gradientUnits="userSpaceOnUse">
<stop stop-color="#BBD153"/>
<stop offset="0.0144262" stop-color="#B9CD54"/>
<stop offset="0.2989" stop-color="#919C7A"/>
<stop offset="0.5494" stop-color="#777B8B"/>
<stop offset="0.7567" stop-color="#666494"/>
<stop offset="0.9128" stop-color="#5B5698"/>
<stop offset="1" stop-color="#57509B"/>
</linearGradient>
<linearGradient id="paint8_linear_25_16912" x1="701.007" y1="550.607" x2="643.039" y2="577.974" gradientUnits="userSpaceOnUse">
<stop stop-color="#C2E95A"/>
<stop offset="0.4295" stop-color="#C2E95A"/>
<stop offset="1" stop-color="white"/>
</linearGradient>
<clipPath id="clip0_25_16912">
<rect width="25.9" height="84.9" fill="white" transform="translate(347 437)"/>
</clipPath>
<clipPath id="clip1_25_16912">
<rect width="317" height="295" fill="white" transform="translate(266 370)"/>
</clipPath>
<clipPath id="clip2_25_16912">
<rect width="66" height="101" fill="white" transform="translate(305 370)"/>
</clipPath>
</defs>
</svg>
