<svg width="38" height="50" viewBox="0 0 38 50" fill="none" xmlns="http://www.w3.org/2000/svg">
<path d="M0 31.6474C0 34.0937 2.47664 36.0778 5.53164 36.0778C8.58664 36.0778 11.0633 34.0937 11.0633 31.6474C11.0633 29.8538 7.81612 28.1664 7.81612 25.0019C7.81612 22.1538 11.0633 20.15 11.0633 18.3563C11.0633 15.91 8.58664 13.926 5.53164 13.926C2.47664 13.926 0 15.91 0 18.3563C0 20.15 3.24724 22.1538 3.24716 25.0019C3.24716 27.85 0 29.8538 0 31.6474Z" fill="white"/>
<path d="M26.8672 4.43038C26.8672 1.98399 29.3437 0 32.3987 0C35.4537 0 37.9304 1.98399 37.9304 4.43038C37.9304 5.20071 37.3313 5.9515 36.6479 6.80814C35.74 7.94599 34.6832 9.27054 34.6832 11.0759C34.6832 12.6638 35.6926 13.9893 36.5858 15.1623C37.2947 16.093 37.9304 16.9279 37.9304 17.7215C37.9304 17.8278 37.9257 17.9334 37.9165 18.0378C37.9257 18.1424 37.9304 18.2479 37.9304 18.3543C37.9304 19.1247 37.3313 19.8754 36.6479 20.732C35.74 21.8699 34.6832 23.1944 34.6832 24.9998C34.6832 26.5877 35.6926 27.9132 36.5858 29.0861C37.2947 30.0169 37.9304 30.8517 37.9304 31.6453C37.9304 31.7517 37.9257 31.8572 37.9165 31.9618C37.9257 32.0663 37.9304 32.1718 37.9304 32.2782C37.9304 33.0719 37.2947 33.9066 36.5858 34.8374C35.6926 36.0103 34.6832 37.3358 34.6832 38.9237C34.6832 40.7291 35.74 42.0537 36.6479 43.1915C37.3313 44.0481 37.9304 44.7989 37.9304 45.5693C37.9304 48.0157 35.4537 50 32.3987 50C29.3437 50 26.8672 48.0157 26.8672 45.5693C26.8672 44.7757 27.5029 43.9409 28.2117 43.0101C29.1049 41.8372 30.1143 40.5117 30.1143 38.9237C30.1143 37.3358 29.1049 36.0103 28.2117 34.8374C27.5029 33.9066 26.8672 33.0719 26.8672 32.2782C26.8672 32.1719 26.8718 32.0663 26.8811 31.9618C26.8718 31.8573 26.8672 31.7517 26.8672 31.6453C26.8672 30.8517 27.5029 30.0169 28.2117 29.0861C29.1049 27.9132 30.1143 26.5877 30.1143 24.9998C30.1143 23.4118 29.1049 22.0864 28.2117 20.9135C27.5029 19.9826 26.8672 19.1479 26.8672 18.3543C26.8672 18.2479 26.8718 18.1424 26.8811 18.0378C26.8718 17.9334 26.8672 17.8279 26.8672 17.7215C26.8672 16.9279 27.5029 16.093 28.2117 15.1623C29.1049 13.9893 30.1143 12.6638 30.1143 11.0759C30.1143 9.48796 29.1049 8.16252 28.2117 6.98952C27.5029 6.05873 26.8672 5.22398 26.8672 4.43038Z" fill="white"/>
<path d="M18.9655 43.0389C15.9105 43.0389 13.434 41.0549 13.434 38.6085C13.434 37.8149 14.0697 36.9802 14.7784 36.0493C15.6717 34.8764 16.6811 33.5509 16.6811 31.963C16.6811 30.3751 15.6717 29.0496 14.7784 27.8766C14.0697 26.9458 13.434 26.1111 13.434 25.3174C13.434 25.211 13.4386 25.1055 13.4478 25.001C13.4386 24.8965 13.434 24.791 13.434 24.6846C13.434 23.8909 14.0697 23.0561 14.7784 22.1254C15.6717 20.9524 16.6811 19.6269 16.6811 18.039C16.6811 16.4511 15.6717 15.1256 14.7784 13.9526C14.0697 13.0218 13.434 12.1871 13.434 11.3935C13.434 8.9471 15.9105 6.9631 18.9655 6.9631C22.0205 6.9631 24.4971 8.9471 24.4971 11.3935C24.4971 12.1638 23.8982 12.9146 23.2146 13.7712C22.3068 14.909 21.25 16.2336 21.25 18.039C21.25 19.6269 22.2594 20.9524 23.1526 22.1254C23.8615 23.0561 24.4971 23.8909 24.4971 24.6846C24.4971 24.7909 24.4925 24.8965 24.4833 25.0009C24.4925 25.1055 24.4971 25.211 24.4971 25.3174C24.4971 26.1111 23.8615 26.9458 23.1526 27.8766C22.2594 29.0496 21.25 30.3751 21.25 31.963C21.25 33.7683 22.3068 35.093 23.2146 36.2307C23.8982 37.0874 24.4971 37.8382 24.4971 38.6085C24.4971 41.0549 22.0205 43.0389 18.9655 43.0389Z" fill="white"/>
</svg>
